<svg id="_2596841" data-name="2596841" xmlns="http://www.w3.org/2000/svg" xmlns:xlink="http://www.w3.org/1999/xlink" width="717.664" height="713.642" viewBox="0 0 717.664 713.642">
  <defs>
    <linearGradient id="linear-gradient" x1="0.37" y1="0.825" x2="0.685" y2="0.038" gradientUnits="objectBoundingBox">
      <stop offset="0" stop-color="#1c75bc"/>
      <stop offset="0.28" stop-color="#2077bc"/>
      <stop offset="0.54" stop-color="#2b7ebc"/>
      <stop offset="0.8" stop-color="#3e88bc"/>
      <stop offset="1" stop-color="#5394bc"/>
    </linearGradient>
  </defs>
  <g id="Group_3" data-name="Group 3" transform="translate(345.314 87.254)" opacity="0.4">
    <path id="Path_86" data-name="Path 86" d="M112.83,28.51v3.275L126.6,39.711V36.437Z" transform="translate(-112.83 -28.51)" fill="#fff"/>
    <path id="Path_87" data-name="Path 87" d="M112.83,30.46v3.305L126.6,41.692V38.417Z" transform="translate(-112.83 -24.492)" fill="#fff"/>
    <path id="Path_88" data-name="Path 88" d="M112.83,32.42v3.275L126.6,43.652V40.347Z" transform="translate(-112.83 -20.454)" fill="#fff"/>
    <path id="Path_89" data-name="Path 89" d="M203.948,90.213V86.938l-84.928-49v3.275Z" transform="translate(-100.076 -9.08)" fill="#fff"/>
    <path id="Path_90" data-name="Path 90" d="M112.83,34.38v3.275L126.6,45.581V42.307Z" transform="translate(-112.83 -16.415)" fill="#fff"/>
    <path id="Path_91" data-name="Path 91" d="M112.83,36.33V39.6L126.6,47.562V44.257Z" transform="translate(-112.83 -12.397)" fill="#fff"/>
    <path id="Path_92" data-name="Path 92" d="M203.948,92.173V88.9l-84.928-49v3.275Z" transform="translate(-100.076 -5.041)" fill="#fff"/>
    <path id="Path_93" data-name="Path 93" d="M112.83,42.2v3.275L126.6,53.4V50.127Z" transform="translate(-112.83 -0.302)" fill="#fff"/>
    <path id="Path_94" data-name="Path 94" d="M112.83,44.15v3.275L126.6,55.382V52.107Z" transform="translate(-112.83 3.716)" fill="#fff"/>
    <path id="Path_95" data-name="Path 95" d="M112.83,51.98v3.275L126.6,63.181V59.907Z" transform="translate(-112.83 19.849)" fill="#fff"/>
    <path id="Path_96" data-name="Path 96" d="M112.83,53.93V57.2L126.6,65.131V61.857Z" transform="translate(-112.83 23.867)" fill="#fff"/>
    <path id="Path_97" data-name="Path 97" d="M172.578,88.411,119.02,57.5v3.275l53.558,30.911Z" transform="translate(-100.076 31.223)" fill="#fff"/>
    <path id="Path_98" data-name="Path 98" d="M137.45,68.13V71.4L165.974,87.87V84.6Z" transform="translate(-62.101 53.126)" fill="#fff"/>
    <path id="Path_99" data-name="Path 99" d="M145.922,71.087,119.02,55.54v3.275l26.9,15.547Z" transform="translate(-100.076 27.185)" fill="#fff"/>
    <path id="Path_100" data-name="Path 100" d="M128.74,61.15v3.275l55.18,31.829V92.979Z" transform="translate(-80.048 38.744)" fill="#fff"/>
    <path id="Path_101" data-name="Path 101" d="M144.4,64.32v3.275l7.253,4.162V68.482Z" transform="translate(-47.781 45.276)" fill="#fff"/>
    <path id="Path_102" data-name="Path 102" d="M157.184,69.725l-38.164-22v3.275l38.164,22Z" transform="translate(-100.076 11.072)" fill="#fff"/>
    <path id="Path_103" data-name="Path 103" d="M141.545,45.056,119.02,32.08v3.275l22.525,12.976Z" transform="translate(-100.076 -21.154)" fill="#fff"/>
    <path id="Path_104" data-name="Path 104" d="M161.394,56.529,127.3,36.85v3.275L161.394,59.8Z" transform="translate(-83.015 -11.326)" fill="#fff"/>
    <path id="Path_105" data-name="Path 105" d="M148.125,50.8,124.1,36.97v3.275l24.025,13.833Z" transform="translate(-89.608 -11.078)" fill="#fff"/>
    <path id="Path_106" data-name="Path 106" d="M155.242,54.935,132.87,42.02v3.275L155.242,58.21Z" transform="translate(-71.538 -0.673)" fill="#fff"/>
    <path id="Path_107" data-name="Path 107" d="M141.1,46.77v3.275l17.353,10.008V56.778Z" transform="translate(-54.58 9.114)" fill="#fff"/>
    <path id="Path_108" data-name="Path 108" d="M120.47,36.82v3.275l18.087,10.436V47.256Z" transform="translate(-97.088 -11.387)" fill="#fff"/>
    <path id="Path_109" data-name="Path 109" d="M179.818,71.038,127.3,40.77v3.275l52.518,30.268Z" transform="translate(-83.015 -3.249)" fill="#fff"/>
    <path id="Path_110" data-name="Path 110" d="M157.728,64.171,123.42,44.4v3.275l34.308,19.771Z" transform="translate(-91.01 4.231)" fill="#fff"/>
    <path id="Path_111" data-name="Path 111" d="M162.8,67.1,135.56,51.4v3.275l27.238,15.7Z" transform="translate(-65.995 18.654)" fill="#fff"/>
    <path id="Path_112" data-name="Path 112" d="M166.259,74.976,132.41,55.45v3.275l33.849,19.526Z" transform="translate(-72.486 26.999)" fill="#fff"/>
    <path id="Path_113" data-name="Path 113" d="M137.45,60.31v3.275L155.874,74.2V70.93Z" transform="translate(-62.101 37.013)" fill="#fff"/>
    <path id="Path_114" data-name="Path 114" d="M125.661,53.506,119.02,49.68v3.275l6.641,3.826Z" transform="translate(-100.076 15.11)" fill="#fff"/>
    <path id="Path_115" data-name="Path 115" d="M125.25,53.27v3.275l34.492,19.893V73.163Z" transform="translate(-87.239 22.507)" fill="#fff"/>
    <path id="Path_116" data-name="Path 116" d="M128.9,55.377,122.11,51.46v3.275l6.794,3.917Z" transform="translate(-93.709 18.778)" fill="#fff"/>
    <path id="Path_117" data-name="Path 117" d="M159.846,75.18,122.11,53.42v3.275l37.736,21.76Z" transform="translate(-93.709 22.816)" fill="#fff"/>
  </g>
  <g id="Group_4" data-name="Group 4" transform="translate(361.626)" opacity="0.4">
    <path id="Path_118" data-name="Path 118" d="M175.238,33.053,118.16,0V2.907l57.078,33.053Z" transform="translate(-118.16)" fill="#fff"/>
    <path id="Path_119" data-name="Path 119" d="M118.16,4.767l87.56,50.651V52.511L118.16,1.86Z" transform="translate(-118.16 3.832)" fill="#fff"/>
    <path id="Path_120" data-name="Path 120" d="M138.06,11.5v2.907l26.657,15.455V26.955Z" transform="translate(-77.157 23.695)" fill="#fff"/>
    <path id="Path_121" data-name="Path 121" d="M175.238,36.683,118.16,3.63V6.537l57.078,33.053Z" transform="translate(-118.16 7.48)" fill="#fff"/>
    <path id="Path_122" data-name="Path 122" d="M118.16,8.407l87.56,50.62V56.12L118.16,5.5Z" transform="translate(-118.16 11.333)" fill="#fff"/>
    <path id="Path_123" data-name="Path 123" d="M138.06,18.017l26.657,15.455V30.565L138.06,15.14Z" transform="translate(-77.157 31.196)" fill="#fff"/>
    <path id="Path_124" data-name="Path 124" d="M175.238,42.683,118.16,9.63v2.907l57.078,33.053Z" transform="translate(-118.16 19.842)" fill="#fff"/>
    <path id="Path_125" data-name="Path 125" d="M118.16,14.407l87.56,50.62V62.12L118.16,11.5Z" transform="translate(-118.16 23.695)" fill="#fff"/>
    <path id="Path_126" data-name="Path 126" d="M138.06,24.017l26.657,15.455V36.565L138.06,21.14Z" transform="translate(-77.157 43.558)" fill="#fff"/>
    <path id="Path_127" data-name="Path 127" d="M175.238,46.323,118.16,13.27v2.907l57.078,33.053Z" transform="translate(-118.16 27.343)" fill="#fff"/>
    <path id="Path_128" data-name="Path 128" d="M118.16,18.037l87.56,50.651V65.781L118.16,15.13Z" transform="translate(-118.16 31.175)" fill="#fff"/>
    <path id="Path_129" data-name="Path 129" d="M138.06,27.677,164.717,43.1V40.225L138.06,24.77Z" transform="translate(-77.157 51.038)" fill="#fff"/>
    <path id="Path_130" data-name="Path 130" d="M175.238,52.323,118.16,19.27v2.907l57.078,33.053Z" transform="translate(-118.16 39.705)" fill="#fff"/>
    <path id="Path_131" data-name="Path 131" d="M118.16,24.037l87.56,50.651V71.781L118.16,21.13Z" transform="translate(-118.16 43.538)" fill="#fff"/>
    <path id="Path_132" data-name="Path 132" d="M138.06,33.677,164.717,49.1V46.195L138.06,30.77Z" transform="translate(-77.157 63.401)" fill="#fff"/>
    <path id="Path_133" data-name="Path 133" d="M175.238,55.953,118.16,22.9v2.907l57.078,33.053Z" transform="translate(-118.16 47.185)" fill="#fff"/>
    <path id="Path_134" data-name="Path 134" d="M118.16,27.667l87.56,50.651V75.411L118.16,24.76Z" transform="translate(-118.16 51.017)" fill="#fff"/>
    <path id="Path_135" data-name="Path 135" d="M138.06,37.307l26.657,15.455V49.855L138.06,34.4Z" transform="translate(-77.157 70.88)" fill="#fff"/>
  </g>
  <path id="Path_136" data-name="Path 136" d="M464.766,183.8l-42.632-24.484a3.061,3.061,0,0,0-4.683,2.693v51.018a6.887,6.887,0,0,0,3.489,6.121l42.632,24.667a3.06,3.06,0,0,0,4.774-2.785v-51.11a7.192,7.192,0,0,0-3.581-6.121Z" transform="translate(-200.035 -109.091)" fill="#fff" opacity="0.2"/>
  <path id="Path_137" data-name="Path 137" d="M476.367,203.235l-55.884-32.227a5.234,5.234,0,0,0-5.6.214h0l-12.242,7.07,5.692,7.743,2.142,2.448v55.364a9.182,9.182,0,0,0,4.591,7.988L456.9,276.043l.428,2.326,8.539,11.966L479,282.593h0a4.162,4.162,0,0,0,2.02-3.581V211.682a9.61,9.61,0,0,0-4.652-8.447Z" transform="translate(-230.549 -85.498)" fill="#f4767a"/>
  <path id="Path_138" data-name="Path 138" d="M464.617,205.878l-56.5-32.625A4.132,4.132,0,0,0,402,176.835v67.7a9.181,9.181,0,0,0,4.621,7.988l56.558,32.716a4.254,4.254,0,0,0,6.366-3.673v-67.33a9.61,9.61,0,0,0-4.928-8.355Z" transform="translate(-231.868 -80.46)" fill="#ed5561"/>
  <path id="Path_139" data-name="Path 139" d="M423.32,209.5Z" transform="translate(-187.939 -4.723)" fill="#bbcee1"/>
  <path id="Path_140" data-name="Path 140" d="M425.319,260.9v-67.33a9.7,9.7,0,0,0-.643-3.244l13.1-7.559a9,9,0,0,1,.612,3.06v67.33a4.162,4.162,0,0,1-2.02,3.581h0l-13.007,7.651a4.162,4.162,0,0,0,1.959-3.489Z" transform="translate(-187.856 -59.8)" fill="#d8395a"/>
  <path id="Path_141" data-name="Path 141" d="M410.986,186.179,404.1,182.2v24.759l4.56,2.632v-8.814l1.959,1.132a7.529,7.529,0,0,0,6.121,1.469c1.438-.582,2.173-2.2,2.173-4.866a12,12,0,0,0-2.02-6.947,17.015,17.015,0,0,0-5.907-5.386Zm2.3,12.028a4.193,4.193,0,0,1-3.061-.857l-1.5-.857v-7.345l2.081,1.194a8.018,8.018,0,0,1,2.724,2.479,5.877,5.877,0,0,1,.887,3.214C414.353,197.258,413.985,197.992,413.281,198.206Z" transform="translate(-227.541 -60.975)" fill="#fff"/>
  <path id="Path_142" data-name="Path 142" d="M76.589,60.211l-8.508-4.927.031-9.7L63.521,42.95,63.46,67.709l4.56,2.632.031-10.681,8.539,4.927-.031,10.681,4.56,2.632.061-24.759-4.56-2.632Z" transform="translate(130.758 88.497)" fill="#fff"/>
  <path id="Path_143" data-name="Path 143" d="M429.863,199.035a17.016,17.016,0,0,0-5.937-5.386l-6.886-3.979v24.759l4.56,2.632v-8.784l1.959,1.132a7.591,7.591,0,0,0,6.121,1.438c1.438-.582,2.173-2.173,2.173-4.866a12.059,12.059,0,0,0-1.989-6.947Zm-3.764,6.672a4.254,4.254,0,0,1-3.06-.887l-1.5-.857v-7.345l2.081,1.194a7.742,7.742,0,0,1,2.724,2.479,5.907,5.907,0,0,1,.887,3.244C427.293,204.728,426.925,205.462,426.1,205.707Z" transform="translate(-200.878 -45.583)" fill="#fff"/>
  <g id="Group_5" data-name="Group 5" transform="translate(113.819 120.246)" opacity="0.4">
    <path id="Path_144" data-name="Path 144" d="M37.19,39.29v3.275l13.772,7.957V47.247Z" transform="translate(-37.19 -39.29)" fill="#fff"/>
    <path id="Path_145" data-name="Path 145" d="M37.19,41.25v3.275l13.772,7.927V49.177Z" transform="translate(-37.19 -35.251)" fill="#fff"/>
    <path id="Path_146" data-name="Path 146" d="M37.19,43.2v3.275l13.772,7.957V51.157Z" transform="translate(-37.19 -31.234)" fill="#fff"/>
    <path id="Path_147" data-name="Path 147" d="M128.308,100.972V97.7L43.38,48.73V52Z" transform="translate(-24.436 -19.839)" fill="#fff"/>
    <path id="Path_148" data-name="Path 148" d="M37.19,45.16v3.275l13.772,7.927V53.087Z" transform="translate(-37.19 -27.195)" fill="#fff"/>
    <path id="Path_149" data-name="Path 149" d="M37.19,47.11v3.305l13.772,7.927V55.067Z" transform="translate(-37.19 -23.177)" fill="#fff"/>
    <path id="Path_150" data-name="Path 150" d="M128.308,102.953V99.678l-84.928-49v3.275Z" transform="translate(-24.436 -15.821)" fill="#fff"/>
    <path id="Path_151" data-name="Path 151" d="M37.19,52.98v3.275l13.772,7.957V60.937Z" transform="translate(-37.19 -11.082)" fill="#fff"/>
    <path id="Path_152" data-name="Path 152" d="M37.19,54.94v3.275l13.772,7.927V62.867Z" transform="translate(-37.19 -7.044)" fill="#fff"/>
    <path id="Path_153" data-name="Path 153" d="M37.19,62.76v3.275l13.772,7.927V70.687Z" transform="translate(-37.19 9.069)" fill="#fff"/>
    <path id="Path_154" data-name="Path 154" d="M37.19,64.71v3.275l13.772,7.957V72.667Z" transform="translate(-37.19 13.087)" fill="#fff"/>
    <path id="Path_155" data-name="Path 155" d="M96.938,99.191,43.38,68.28v3.275l53.558,30.911Z" transform="translate(-24.436 20.443)" fill="#fff"/>
    <path id="Path_156" data-name="Path 156" d="M61.81,78.91v3.275L90.334,98.65V95.375Z" transform="translate(13.539 42.346)" fill="#fff"/>
    <path id="Path_157" data-name="Path 157" d="M70.282,81.847,43.38,66.33V69.6l26.9,15.517Z" transform="translate(-24.436 16.425)" fill="#fff"/>
    <path id="Path_158" data-name="Path 158" d="M53.09,71.93V75.2L108.3,107.034v-3.275Z" transform="translate(-4.428 27.964)" fill="#fff"/>
    <path id="Path_159" data-name="Path 159" d="M68.76,75.1v3.275l7.253,4.193V79.293Z" transform="translate(27.859 34.496)" fill="#fff"/>
    <path id="Path_160" data-name="Path 160" d="M81.514,80.535,43.38,58.5v3.275L81.514,83.81Z" transform="translate(-24.436 0.292)" fill="#fff"/>
    <path id="Path_161" data-name="Path 161" d="M65.905,55.836,43.38,42.86v3.275L65.905,59.111Z" transform="translate(-24.436 -31.934)" fill="#fff"/>
    <path id="Path_162" data-name="Path 162" d="M85.754,67.288,51.66,47.64v3.275L85.754,70.563Z" transform="translate(-7.375 -22.085)" fill="#fff"/>
    <path id="Path_163" data-name="Path 163" d="M72.485,61.583,48.46,47.75v3.275L72.485,64.858Z" transform="translate(-13.968 -21.858)" fill="#fff"/>
    <path id="Path_164" data-name="Path 164" d="M79.6,65.695,57.23,52.81v3.275L79.6,68.969Z" transform="translate(4.102 -11.432)" fill="#fff"/>
    <path id="Path_165" data-name="Path 165" d="M65.46,57.55v3.275L82.813,70.832V67.558Z" transform="translate(21.06 -1.666)" fill="#fff"/>
    <path id="Path_166" data-name="Path 166" d="M44.83,47.61v3.275L62.917,61.321V58.046Z" transform="translate(-21.448 -22.147)" fill="#fff"/>
    <path id="Path_167" data-name="Path 167" d="M104.178,81.818,51.66,51.55v3.275l52.518,30.3Z" transform="translate(-7.375 -14.029)" fill="#fff"/>
    <path id="Path_168" data-name="Path 168" d="M82.088,74.981,47.78,55.18v3.275l34.308,19.8Z" transform="translate(-15.37 -6.549)" fill="#fff"/>
    <path id="Path_169" data-name="Path 169" d="M87.158,77.88,59.92,62.18v3.275l27.238,15.7Z" transform="translate(9.645 7.874)" fill="#fff"/>
    <path id="Path_170" data-name="Path 170" d="M90.619,85.756,56.77,66.23V69.5L90.619,89.031Z" transform="translate(3.154 16.219)" fill="#fff"/>
    <path id="Path_171" data-name="Path 171" d="M61.81,71.09v3.275l18.424,10.65V81.74Z" transform="translate(13.539 26.233)" fill="#fff"/>
    <path id="Path_172" data-name="Path 172" d="M50.021,64.286,43.38,60.46v3.275l6.641,3.826Z" transform="translate(-24.436 4.33)" fill="#fff"/>
    <path id="Path_173" data-name="Path 173" d="M49.61,64.06v3.275L84.1,87.228V83.953Z" transform="translate(-11.599 11.748)" fill="#fff"/>
    <path id="Path_174" data-name="Path 174" d="M53.264,66.157,46.47,62.24v3.275l6.794,3.917Z" transform="translate(-18.069 7.998)" fill="#fff"/>
    <path id="Path_175" data-name="Path 175" d="M84.206,85.96,46.47,64.2v3.275l37.736,21.76Z" transform="translate(-18.069 12.036)" fill="#fff"/>
  </g>
  <path id="Path_176" data-name="Path 176" d="M549.557,212.6l-42.632-24.484a3.061,3.061,0,0,0-4.683,2.724v51.018a6.947,6.947,0,0,0,3.458,6.121l42.633,24.637a3.061,3.061,0,0,0,4.805-2.754V218.811A7.223,7.223,0,0,0,549.557,212.6Z" transform="translate(-25.328 -49.75)" fill="#fff" opacity="0.2"/>
  <path id="Path_177" data-name="Path 177" d="M568.576,180.378l-42.633-24.484a3.06,3.06,0,0,0-4.683,2.693v50.926a6.855,6.855,0,0,0,3.489,6.121L567.383,240.3a3.06,3.06,0,0,0,4.774-2.785v-50.8a7.1,7.1,0,0,0-3.581-6.335Z" transform="translate(13.863 -116.138)" fill="#fff" opacity="0.2"/>
  <path id="Path_178" data-name="Path 178" d="M611.586,267.558l-42.632-24.484a3.06,3.06,0,0,0-4.683,2.693v51.049a6.855,6.855,0,0,0,3.489,6.121l42.6,24.667a3.061,3.061,0,0,0,4.805-2.785v-50.8a7.1,7.1,0,0,0-3.58-6.458Z" transform="translate(102.484 63.494)" fill="#fff" opacity="0.2"/>
  <path id="Path_179" data-name="Path 179" d="M490.316,226.515l-42.632-24.484a3.06,3.06,0,0,0-4.652,2.724v51.018a6.978,6.978,0,0,0,3.458,6.121l42.633,24.637a3.06,3.06,0,0,0,4.8-2.754V232.728A7.192,7.192,0,0,0,490.316,226.515Z" transform="translate(-147.328 -21.035)" fill="#fff" opacity="0.2"/>
  <path id="Path_180" data-name="Path 180" d="M430,354.545c-11.324,0-7.62-8.508-7.62-8.508-16.772-5.111-25.035-2.265-25.035-2.265a77.216,77.216,0,0,0-2.663,27.361c0,1.745,1.224,2.816,2.877,3.458,9.029,3.336,17.261,5.57,34.063,3.948,12.4-1.224,25.494-12.67,22.525-24.484C452.283,346.771,441.479,354.422,430,354.545Z" transform="translate(-247.476 270.313)" fill="#933e31"/>
  <path id="Path_181" data-name="Path 181" d="M484.942,316.249c-3.305-4.315-9-7.988-18.363-5.509L365.4,330.266l3.795,25.983a40.337,40.337,0,0,0,42.632,12.7,157.524,157.524,0,0,0,44.744-20.444l-3.489,71.8a40.489,40.489,0,0,0,30.023-3.611c2.357-1.438,4.56-70.605,5.295-88.356a16.252,16.252,0,0,0-3.458-12.089Z" transform="translate(-307.282 202.227)" fill="#1c75bc"/>
  <path id="Path_182" data-name="Path 182" d="M446.795,361.629c-11.752,0-7.9-8.845-7.9-8.845-17.445-5.295-26.014-2.357-26.014-2.357a81.255,81.255,0,0,0-2.785,28.4,3.856,3.856,0,0,0,3.061,3.611c9.4,3.489,17.934,5.784,35.379,4.1,12.854-1.255,26.473-13.16,23.382-25.4C469.932,353.549,458.7,361.506,446.795,361.629Z" transform="translate(-215.698 283.979)" fill="#9d4d36"/>
  <path id="Path_183" data-name="Path 183" d="M96.406,235.432,9.55,185.21v12.242l86.887,50.069Z" transform="translate(19.678 381.621)" fill="#bbcee1"/>
  <path id="Path_184" data-name="Path 184" d="M88.51,170.39,9.55,215.746l86.856,50.222,79.052-45.417Z" transform="translate(19.678 351.085)" fill="#fff"/>
  <path id="Path_185" data-name="Path 185" d="M116.982,186.78,37.93,232.2l.031,12.089,79.022-45.724Z" transform="translate(78.154 384.856)" fill="#a7bcce"/>
  <path id="Path_186" data-name="Path 186" d="M503.884,321.852c-3.428-4.468-9.181-8.294-19.128-5.723L379.69,336.389l4.009,26.963a41.867,41.867,0,0,0,44.254,13.191,163.091,163.091,0,0,0,46.458-21.24l-3.55,74.461a41.867,41.867,0,0,0,31.156-3.734c2.479-1.5,4.774-73.3,5.509-91.814a16.862,16.862,0,0,0-3.642-12.364Z" transform="translate(-277.837 213.273)" fill="#2a87c6"/>
  <path id="Path_187" data-name="Path 187" d="M362.283,340.045,541.688,235.988a24.484,24.484,0,0,1,24.484,0l282.6,163.491a10.8,10.8,0,0,1,0,18.73l-175.4,101.822a29.166,29.166,0,0,1-29.228,0L362.191,356.908a9.671,9.671,0,0,1,.092-16.863Z" transform="translate(-323.966 43.097)" fill="#e8ebf5"/>
  <path id="Path_188" data-name="Path 188" d="M362.217,278.844,644.178,441.967a29.167,29.167,0,0,0,29.228,0L848.8,340.145a10.743,10.743,0,0,0,5.387-9.181v13.65h0a10.65,10.65,0,0,1-5.356,9.181L673.406,455.556a29.166,29.166,0,0,1-29.228,0L362.217,292.432a9.64,9.64,0,0,1-4.866-8.477h0v-13.4a9.549,9.549,0,0,0,4.866,8.294Z" transform="translate(-323.869 121.069)" fill="#a7bcce"/>
  <path id="Path_189" data-name="Path 189" d="M362.217,278.885,644.178,442.008a28.923,28.923,0,0,0,13.344,3.826v13.528a29.292,29.292,0,0,1-13.344-3.826L362.217,292.412a9.64,9.64,0,0,1-4.866-8.478h0v-13.4a9.549,9.549,0,0,0,4.866,8.355Z" transform="translate(-323.869 121.027)" fill="#bbcee1"/>
  <path id="Path_190" data-name="Path 190" d="M402.84,292.345l30.452-17.6a4.622,4.622,0,0,1,4.621,0l94.048,54.385a2.051,2.051,0,0,1,0,3.52L502.244,349.82a5.478,5.478,0,0,1-5.478,0L402.84,295.527a1.867,1.867,0,0,1,0-3.183Z" transform="translate(-231.973 128.44)" fill="#0f4463"/>
  <path id="Path_191" data-name="Path 191" d="M402.839,282.191l93.926,54.293a5.478,5.478,0,0,0,5.478,0l29.717-17.169a2.02,2.02,0,0,0,1.01-1.775v3.611h0a2.142,2.142,0,0,1-1.01,1.745l-29.717,17.077a5.478,5.478,0,0,1-5.478,0L402.839,285.8a1.745,1.745,0,0,1-.888-1.591h0V280.6a1.867,1.867,0,0,0,.888,1.591Z" transform="translate(-231.972 141.776)" fill="#0b3b56"/>
  <path id="Path_192" data-name="Path 192" d="M65.67,134.834l3.8-2.2,4.346,2.479-3.795,2.2Z" transform="translate(135.312 273.281)" fill="#1f5e77"/>
  <path id="Path_193" data-name="Path 193" d="M67.43,135.874l3.826-2.234,4.315,2.51-3.795,2.2Z" transform="translate(138.938 275.362)" fill="#1f5e77"/>
  <path id="Path_194" data-name="Path 194" d="M69.2,136.864l3.795-2.2,4.346,2.51-3.795,2.2Z" transform="translate(142.585 277.464)" fill="#1f5e77"/>
  <path id="Path_195" data-name="Path 195" d="M70.96,137.884l3.826-2.2,4.346,2.479-3.826,2.2Z" transform="translate(146.211 279.566)" fill="#1f5e77"/>
  <path id="Path_196" data-name="Path 196" d="M72.73,138.924l3.826-2.234,4.315,2.51-3.795,2.2Z" transform="translate(149.859 281.647)" fill="#1f5e77"/>
  <path id="Path_197" data-name="Path 197" d="M74.5,139.914l3.795-2.2,4.346,2.51-3.8,2.2Z" transform="translate(153.506 283.748)" fill="#1f5e77"/>
  <path id="Path_198" data-name="Path 198" d="M76.26,140.934l3.826-2.2,4.315,2.479-3.795,2.2Z" transform="translate(157.132 285.85)" fill="#1f5e77"/>
  <path id="Path_199" data-name="Path 199" d="M78.03,141.974l3.795-2.234,4.346,2.51-3.795,2.2Z" transform="translate(160.779 287.931)" fill="#1f5e77"/>
  <path id="Path_200" data-name="Path 200" d="M79.79,142.964l3.826-2.2,4.315,2.51-3.795,2.2Z" transform="translate(164.405 290.033)" fill="#1f5e77"/>
  <path id="Path_201" data-name="Path 201" d="M81.56,143.984l3.826-2.2,4.315,2.479-3.8,2.2Z" transform="translate(168.053 292.134)" fill="#1f5e77"/>
  <path id="Path_202" data-name="Path 202" d="M83.33,144.994l3.795-2.2,4.346,2.51-3.8,2.2Z" transform="translate(171.7 294.216)" fill="#1f5e77"/>
  <path id="Path_203" data-name="Path 203" d="M85.09,146.014l3.826-2.2,4.315,2.51-3.795,2.173Z" transform="translate(175.326 296.317)" fill="#1f5e77"/>
  <path id="Path_204" data-name="Path 204" d="M90.655,144.82,95,147.33l-3.795,2.2-4.346-2.479Z" transform="translate(178.973 298.398)" fill="#1f5e77"/>
  <path id="Path_205" data-name="Path 205" d="M68.375,138.273l-4.315-2.51,3.8-2.2,4.346,2.51Z" transform="translate(131.994 275.197)" fill="#1f5e77"/>
  <path id="Path_206" data-name="Path 206" d="M73.961,137.059l-3.8,2.2-4.346-2.479,3.826-2.2Z" transform="translate(135.621 277.299)" fill="#1f5e77"/>
  <path id="Path_207" data-name="Path 207" d="M75.731,138.1l-3.795,2.2-4.346-2.479,3.795-2.234Z" transform="translate(139.268 279.38)" fill="#1f5e77"/>
  <path id="Path_208" data-name="Path 208" d="M77.491,139.12l-3.795,2.2-4.346-2.51,3.826-2.2Z" transform="translate(142.894 281.482)" fill="#1f5e77"/>
  <path id="Path_209" data-name="Path 209" d="M79.261,140.109l-3.795,2.2-4.346-2.479,3.795-2.2Z" transform="translate(146.541 283.583)" fill="#1f5e77"/>
  <path id="Path_210" data-name="Path 210" d="M81.051,141.15l-3.826,2.2-4.346-2.479,3.826-2.234Z" transform="translate(150.168 285.665)" fill="#1f5e77"/>
  <path id="Path_211" data-name="Path 211" d="M82.791,142.17,79,144.373l-4.346-2.51,3.826-2.2Z" transform="translate(153.815 287.766)" fill="#1f5e77"/>
  <path id="Path_212" data-name="Path 212" d="M84.561,143.159l-3.8,2.2-4.346-2.479,3.795-2.2Z" transform="translate(157.462 289.868)" fill="#1f5e77"/>
  <path id="Path_213" data-name="Path 213" d="M86.321,144.2l-3.795,2.2-4.346-2.479,3.826-2.234Z" transform="translate(161.088 291.949)" fill="#1f5e77"/>
  <path id="Path_214" data-name="Path 214" d="M88.091,145.22l-3.795,2.2-4.346-2.51,3.8-2.2Z" transform="translate(164.735 294.051)" fill="#1f5e77"/>
  <path id="Path_215" data-name="Path 215" d="M89.881,146.209l-3.826,2.2-4.346-2.479,3.826-2.2Z" transform="translate(168.362 296.152)" fill="#1f5e77"/>
  <path id="Path_216" data-name="Path 216" d="M91.621,147.25l-3.795,2.2-4.346-2.479,3.795-2.234Z" transform="translate(172.009 298.233)" fill="#1f5e77"/>
  <path id="Path_217" data-name="Path 217" d="M89.045,145.76l4.346,2.479L89.6,150.473l-4.346-2.51Z" transform="translate(175.656 300.335)" fill="#1f5e77"/>
  <path id="Path_218" data-name="Path 218" d="M66.786,139.183,62.44,136.7l3.826-2.2,4.315,2.479Z" transform="translate(128.656 277.134)" fill="#1f5e77"/>
  <path id="Path_219" data-name="Path 219" d="M72.351,138.02l-3.795,2.2-4.346-2.51L68,135.51Z" transform="translate(132.303 279.215)" fill="#1f5e77"/>
  <path id="Path_220" data-name="Path 220" d="M65.97,138.734l3.826-2.2,4.346,2.479-3.826,2.2Z" transform="translate(135.93 281.317)" fill="#1f5e77"/>
  <path id="Path_221" data-name="Path 221" d="M75.881,140.05l-3.795,2.2-4.346-2.479,3.826-2.234Z" transform="translate(139.577 283.398)" fill="#1f5e77"/>
  <path id="Path_222" data-name="Path 222" d="M77.651,141.07l-3.795,2.2-4.346-2.51,3.795-2.2Z" transform="translate(143.224 285.5)" fill="#1f5e77"/>
  <path id="Path_223" data-name="Path 223" d="M79.411,142.059l-3.795,2.2-4.346-2.479,3.826-2.2Z" transform="translate(146.85 287.601)" fill="#1f5e77"/>
  <path id="Path_224" data-name="Path 224" d="M81.181,143.1l-3.795,2.2-4.346-2.479,3.795-2.234Z" transform="translate(150.497 289.682)" fill="#1f5e77"/>
  <path id="Path_225" data-name="Path 225" d="M82.971,144.12l-3.826,2.2-4.346-2.51,3.826-2.2Z" transform="translate(154.124 291.784)" fill="#1f5e77"/>
  <path id="Path_226" data-name="Path 226" d="M84.711,145.109l-3.8,2.2-4.346-2.479,3.826-2.2Z" transform="translate(157.771 293.886)" fill="#1f5e77"/>
  <path id="Path_227" data-name="Path 227" d="M86.481,146.15l-3.795,2.2-4.346-2.479,3.8-2.234Z" transform="translate(161.418 295.967)" fill="#1f5e77"/>
  <path id="Path_228" data-name="Path 228" d="M88.241,147.17l-3.8,2.2-4.346-2.51,3.826-2.2Z" transform="translate(165.044 298.069)" fill="#1f5e77"/>
  <path id="Path_229" data-name="Path 229" d="M81.87,147.884l3.795-2.2,4.346,2.479-3.8,2.2Z" transform="translate(168.691 300.17)" fill="#1f5e77"/>
  <path id="Path_230" data-name="Path 230" d="M87.456,146.69,91.8,149.2l-3.826,2.2-4.346-2.51Z" transform="translate(172.318 302.251)" fill="#1f5e77"/>
  <path id="Path_231" data-name="Path 231" d="M65.176,140.143l-4.346-2.51,3.826-2.2,4.315,2.51Z" transform="translate(125.339 279.05)" fill="#1f5e77"/>
  <path id="Path_232" data-name="Path 232" d="M62.6,138.674l3.8-2.234,4.346,2.51-3.8,2.2Z" transform="translate(128.986 281.132)" fill="#1f5e77"/>
  <path id="Path_233" data-name="Path 233" d="M64.36,139.663l3.826-2.2,4.315,2.51-3.795,2.2Z" transform="translate(132.612 283.233)" fill="#1f5e77"/>
  <path id="Path_234" data-name="Path 234" d="M66.13,140.684l3.826-2.2,4.315,2.479-3.795,2.2Z" transform="translate(136.259 285.335)" fill="#1f5e77"/>
  <path id="Path_235" data-name="Path 235" d="M67.89,141.724l3.826-2.234L76.061,142l-3.826,2.2Z" transform="translate(139.886 287.416)" fill="#1f5e77"/>
  <path id="Path_236" data-name="Path 236" d="M69.66,142.714l3.826-2.2,4.315,2.51-3.795,2.2Z" transform="translate(143.533 289.518)" fill="#1f5e77"/>
  <path id="Path_237" data-name="Path 237" d="M71.43,143.734l3.795-2.2,4.346,2.479-3.795,2.2Z" transform="translate(147.18 291.619)" fill="#1f5e77"/>
  <path id="Path_238" data-name="Path 238" d="M73.19,144.774l3.826-2.234,4.315,2.51-3.795,2.2Z" transform="translate(150.806 293.7)" fill="#1f5e77"/>
  <path id="Path_239" data-name="Path 239" d="M74.96,145.764l3.795-2.2,4.346,2.51-3.8,2.2Z" transform="translate(154.453 295.802)" fill="#1f5e77"/>
  <path id="Path_240" data-name="Path 240" d="M76.72,146.784l3.826-2.2,4.346,2.479-3.826,2.2Z" transform="translate(158.08 297.904)" fill="#1f5e77"/>
  <path id="Path_241" data-name="Path 241" d="M78.49,147.824l3.826-2.234,4.315,2.51-3.795,2.2Z" transform="translate(161.727 299.985)" fill="#1f5e77"/>
  <path id="Path_242" data-name="Path 242" d="M80.26,148.814l3.795-2.2,4.346,2.51-3.795,2.2Z" transform="translate(165.374 302.087)" fill="#1f5e77"/>
  <path id="Path_243" data-name="Path 243" d="M85.846,147.63l4.315,2.479-3.795,2.2-4.346-2.479Z" transform="translate(169 304.188)" fill="#1f5e77"/>
  <path id="Path_244" data-name="Path 244" d="M63.566,141.073l-4.346-2.479,3.826-2.234,4.315,2.51Z" transform="translate(122.021 280.967)" fill="#1f5e77"/>
  <path id="Path_245" data-name="Path 245" d="M60.98,139.584l3.826-2.2,4.346,2.479-3.795,2.2Z" transform="translate(125.648 283.068)" fill="#1f5e77"/>
  <path id="Path_246" data-name="Path 246" d="M62.75,140.6l3.826-2.2,4.315,2.479-3.8,2.2Z" transform="translate(129.295 285.17)" fill="#1f5e77"/>
  <path id="Path_247" data-name="Path 247" d="M64.52,141.614l3.795-2.2,4.346,2.51-3.795,2.2Z" transform="translate(132.942 287.251)" fill="#1f5e77"/>
  <path id="Path_248" data-name="Path 248" d="M66.28,142.634l3.826-2.2,4.315,2.51-3.8,2.2Z" transform="translate(136.568 289.353)" fill="#1f5e77"/>
  <path id="Path_249" data-name="Path 249" d="M68.05,143.674l3.826-2.234,4.315,2.51-3.795,2.2Z" transform="translate(140.215 291.434)" fill="#1f5e77"/>
  <path id="Path_250" data-name="Path 250" d="M69.81,144.664l3.826-2.2,4.346,2.51-3.826,2.2Z" transform="translate(143.842 293.536)" fill="#1f5e77"/>
  <path id="Path_251" data-name="Path 251" d="M71.58,145.684l3.826-2.2,4.315,2.479-3.795,2.2Z" transform="translate(147.489 295.637)" fill="#1f5e77"/>
  <path id="Path_252" data-name="Path 252" d="M73.35,146.724l3.795-2.234L81.491,147,77.7,149.2Z" transform="translate(151.136 297.718)" fill="#1f5e77"/>
  <path id="Path_253" data-name="Path 253" d="M75.11,147.714l3.826-2.2,4.315,2.51-3.795,2.2Z" transform="translate(154.762 299.82)" fill="#1f5e77"/>
  <path id="Path_254" data-name="Path 254" d="M76.88,148.734l3.8-2.2,4.346,2.479-3.795,2.2Z" transform="translate(158.409 301.922)" fill="#1f5e77"/>
  <path id="Path_255" data-name="Path 255" d="M78.64,149.774l3.826-2.234,4.346,2.51-3.826,2.2Z" transform="translate(162.036 304.003)" fill="#1f5e77"/>
  <path id="Path_256" data-name="Path 256" d="M84.236,148.56l4.315,2.51-3.795,2.2-4.346-2.51Z" transform="translate(165.683 306.104)" fill="#1f5e77"/>
  <path id="Path_257" data-name="Path 257" d="M61.4,137.3l4.346,2.479-3.795,2.2L57.61,139.5Z" transform="translate(118.704 282.904)" fill="#1f5e77"/>
  <path id="Path_258" data-name="Path 258" d="M67.511,140.82l-3.795,2.2-4.346-2.51,3.826-2.2Z" transform="translate(122.331 284.985)" fill="#1f5e77"/>
  <path id="Path_259" data-name="Path 259" d="M69.281,141.84l-3.795,2.2-4.346-2.51,3.795-2.2Z" transform="translate(125.978 287.086)" fill="#1f5e77"/>
  <path id="Path_260" data-name="Path 260" d="M71.051,142.85l-3.795,2.2-4.346-2.479,3.8-2.234Z" transform="translate(129.625 289.167)" fill="#1f5e77"/>
  <path id="Path_261" data-name="Path 261" d="M72.811,143.87l-3.795,2.2-4.346-2.51,3.826-2.2Z" transform="translate(133.251 291.269)" fill="#1f5e77"/>
  <path id="Path_262" data-name="Path 262" d="M74.581,144.859l-3.795,2.2-4.346-2.479,3.795-2.2Z" transform="translate(136.898 293.371)" fill="#1f5e77"/>
  <path id="Path_263" data-name="Path 263" d="M72.026,143.4l5.386,3.091h.031l1.041.612,4.346,2.51h0l2.2,1.255,3.214,1.836h0l3.4,1.989,6.335,3.642-3.795,2.2-6.611-3.826-3.152-1.775h0l-3.275-1.9L79,151.816h.031l-4.285-2.448-1.132-.673h0L68.2,145.6Z" transform="translate(140.525 295.472)" fill="#1f5e77"/>
  <path id="Path_264" data-name="Path 264" d="M85.171,150.959l-3.8,2.2-4.346-2.479,3.826-2.2Z" transform="translate(158.719 305.94)" fill="#1f5e77"/>
  <path id="Path_265" data-name="Path 265" d="M86.941,152l-3.795,2.2L78.8,151.724l3.795-2.234Z" transform="translate(162.366 308.021)" fill="#1f5e77"/>
  <path id="Path_266" data-name="Path 266" d="M90.39,149.064l3.795-2.2,4.346,2.479-3.8,2.2Z" transform="translate(186.247 302.602)" fill="#1f5e77"/>
  <path id="Path_267" data-name="Path 267" d="M92.16,150.1l3.795-2.234,4.346,2.51-3.826,2.2Z" transform="translate(189.894 304.683)" fill="#1f5e77"/>
  <path id="Path_268" data-name="Path 268" d="M93.92,151.094l3.826-2.2,4.315,2.51-3.8,2.2Z" transform="translate(193.52 306.784)" fill="#1f5e77"/>
  <path id="Path_269" data-name="Path 269" d="M96.921,150.3l-3.8,2.2-4.346-2.51,3.795-2.2Z" transform="translate(182.929 304.518)" fill="#1f5e77"/>
  <path id="Path_270" data-name="Path 270" d="M98.681,151.289l-3.795,2.2-4.346-2.479,3.826-2.2Z" transform="translate(186.556 306.62)" fill="#1f5e77"/>
  <path id="Path_271" data-name="Path 271" d="M100.451,152.33l-3.795,2.2-4.346-2.479,3.8-2.234Z" transform="translate(190.203 308.701)" fill="#1f5e77"/>
  <path id="Path_272" data-name="Path 272" d="M95.311,151.23l-3.826,2.2-4.315-2.479,3.8-2.234Z" transform="translate(179.612 306.434)" fill="#1f5e77"/>
  <path id="Path_273" data-name="Path 273" d="M97.071,152.25l-3.795,2.2-4.346-2.51,3.826-2.2Z" transform="translate(183.238 308.536)" fill="#1f5e77"/>
  <path id="Path_274" data-name="Path 274" d="M98.841,153.239l-3.795,2.2L90.7,152.964l3.795-2.2Z" transform="translate(186.885 310.638)" fill="#1f5e77"/>
  <path id="Path_275" data-name="Path 275" d="M85.55,151.864l3.826-2.2,4.346,2.479-3.826,2.2Z" transform="translate(176.274 308.371)" fill="#1f5e77"/>
  <path id="Path_276" data-name="Path 276" d="M87.32,152.9l3.795-2.234,4.346,2.51-3.8,2.2Z" transform="translate(179.921 310.452)" fill="#1f5e77"/>
  <path id="Path_277" data-name="Path 277" d="M89.08,153.894l3.826-2.2,4.346,2.51-3.826,2.2Z" transform="translate(183.547 312.554)" fill="#1f5e77"/>
  <path id="Path_278" data-name="Path 278" d="M83.94,152.794l3.826-2.2,4.315,2.51-3.795,2.2Z" transform="translate(172.956 310.287)" fill="#1f5e77"/>
  <path id="Path_279" data-name="Path 279" d="M85.71,153.814l3.795-2.2,4.346,2.479-3.8,2.2Z" transform="translate(176.604 312.389)" fill="#1f5e77"/>
  <path id="Path_280" data-name="Path 280" d="M87.47,154.854,91.3,152.62l4.346,2.51-3.826,2.2Z" transform="translate(180.23 314.47)" fill="#1f5e77"/>
  <path id="Path_281" data-name="Path 281" d="M90.471,154.009l-3.795,2.2-4.346-2.479,3.826-2.2Z" transform="translate(169.639 312.224)" fill="#1f5e77"/>
  <path id="Path_282" data-name="Path 282" d="M92.241,155.05l-3.8,2.2-4.346-2.51,3.795-2.2Z" transform="translate(173.286 314.305)" fill="#1f5e77"/>
  <path id="Path_283" data-name="Path 283" d="M424.825,282.623l29.962-17.384a4.01,4.01,0,0,1,4.1,0l71.064,41.041a1.806,1.806,0,0,1,0,3.06l-29.289,16.986a4.774,4.774,0,0,1-4.866,0l-70.972-40.949a1.622,1.622,0,0,1,0-2.754Z" transform="translate(-186.414 108.965)" fill="#1f5e77"/>
  <path id="Path_284" data-name="Path 284" d="M424.846,272.377l70.972,40.949a4.774,4.774,0,0,0,4.866,0l29.289-16.986a1.836,1.836,0,0,0,.888-1.561v3.764h0a1.775,1.775,0,0,1-.888,1.53l-29.289,16.833a4.866,4.866,0,0,1-4.866,0l-70.972-40.98a1.622,1.622,0,0,1-.8-1.408h0V271a1.622,1.622,0,0,0,.8,1.377Z" transform="translate(-186.435 121.996)" fill="#07304b"/>
  <path id="Path_285" data-name="Path 285" d="M424.846,272.377l70.972,40.949a4.714,4.714,0,0,0,2.2.643v3.642a4.683,4.683,0,0,1-2.2-.612l-70.972-40.98a1.622,1.622,0,0,1-.8-1.408h0V271a1.622,1.622,0,0,0,.8,1.377Z" transform="translate(-186.435 121.996)" fill="#0b3b56"/>
  <path id="Path_286" data-name="Path 286" d="M140.461,150.372,85.25,118.39v27.361L140.461,177.7Z" transform="translate(175.656 243.94)" fill="#0f4463"/>
  <path id="Path_287" data-name="Path 287" d="M92.932,116.95l-7.682,4.407,55.211,31.982,7.712-4.438Z" transform="translate(175.656 240.973)" fill="#07304b"/>
  <path id="Path_288" data-name="Path 288" d="M111,127.39l-7.712,4.438v27.33L111,154.689Z" transform="translate(212.827 262.484)" fill="#07304b"/>
  <path id="Path_289" data-name="Path 289" d="M67,72.89l167.9,97.384V293.8L67,196.044Z" transform="translate(138.052 150.188)" fill="url(#linear-gradient)"/>
  <path id="Path_290" data-name="Path 290" d="M121.86,107l5.57-3.4V227.151l-5.57,3.367Z" transform="translate(251.09 213.465)" fill="#07304b"/>
  <path id="Path_291" data-name="Path 291" d="M67,75.115l5.723-3.305L240.468,169.1l-5.57,3.4Z" transform="translate(138.052 147.963)" fill="#1f5e77"/>
  <path id="Path_292" data-name="Path 292" d="M413.41,215.49V338.644l167.9,97.752V312.844ZM577.421,429.479,417.389,336.409V222.376l160.032,92.763Z" transform="translate(-208.358 7.619)" fill="#0b3b56"/>
  <path id="Path_293" data-name="Path 293" d="M428.115,288.611c-1.745,17.659-14.751,30.819-29.075,29.411S374.557,301.159,376.3,283.5s14.752-30.788,29.044-29.381S429.86,270.983,428.115,288.611Z" transform="translate(-285.221 87.001)" fill="#fed4bd"/>
  <path id="Path_294" data-name="Path 294" d="M403.7,293.838s6.121,1.5,8.386,1.714,10.344,1.928,13.68.918-3.06-3.244-4.5-4.376-1.469-4.04,1.9-5.05,11.018-.551,15.058-1.132-4.009-12.793-10.589-13.925a27.82,27.82,0,0,0-18.026,2.448c-5.6,2.754-8.661,7.437-11.263,8.324Z" transform="translate(-239.409 122.907)" fill="#f4c5a2"/>
  <path id="Path_295" data-name="Path 295" d="M430.434,273.32,387.862,284l-2.142,27.024,50.253-17.261C437.014,284.246,430.434,273.32,430.434,273.32Z" transform="translate(-265.413 126.776)" fill="#ed5561"/>
  <path id="Path_296" data-name="Path 296" d="M369.526,277.06s-11.783,14.813,0,35.257c0,0,8.233,11.385,30.819.214Z" transform="translate(-309.571 134.482)" fill="#ed5561"/>
  <path id="Path_297" data-name="Path 297" d="M401,271.434s18.363-1.255,32.717,8.784a11.079,11.079,0,0,0,3.948,4.958c2.877,1.928,17.169,7.651,17.169,7.651s-6.3,83.765.918,124.561c0,0-31,24.208-79.572,0,0,0-7.07-102.863-10.191-128.54C366.021,288.756,374.192,278.779,401,271.434Z" transform="translate(-306.066 122.786)" fill="#de495a"/>
  <path id="Path_298" data-name="Path 298" d="M86.856,207.8,0,157.58l29.228,84.683,86.887,50.1Z" transform="translate(0 324.69)" fill="#bbcee1"/>
  <path id="Path_299" data-name="Path 299" d="M9.579,155.76,0,161.33l86.856,50.222,9.7-5.631Z" transform="translate(0 320.94)" fill="#fff"/>
  <path id="Path_300" data-name="Path 300" d="M38.082,172.15l-9.7,5.631,29.258,84.561,9.794-5.631Z" transform="translate(58.476 354.711)" fill="#a7bcce"/>
  <path id="Path_301" data-name="Path 301" d="M418.79,300.56s4.744-4.774,6.549-6.121,8.172-7.376,11.752-8.172-2.51,5.417-3.275,7.345,3.673-1.561,7.009-2.816a16.5,16.5,0,0,1,11.385.4c8.233,3.06,7.835,19.373,1.1,17.445-11.048-3.06-16.006,5.57-22.617,7.406a66.459,66.459,0,0,1-9.334,1.714Z" transform="translate(-197.273 153.309)" fill="#f4c5a2"/>
  <path id="Path_302" data-name="Path 302" d="M405.285,278.39l35.9,47.59,37.338-11.018s8.018,10.1,5.417,20.781l-49.825,19.4-40.49-44.53S380.128,282.338,405.285,278.39Z" transform="translate(-256.576 137.223)" fill="#ed5561"/>
  <path id="Path_303" data-name="Path 303" d="M419.006,249.12s2.754,6.641-10.467,8.447-29.534,8.355-33.849,22.311c-2.754,8.906.429,18.363,4.927,26.259a50.441,50.441,0,0,0,5.233,7.651,28.554,28.554,0,0,0,19.5-3.336,33.85,33.85,0,0,0,10.5-12.793s7.865,3.275,10.314-3.275c1.806-4.836,7.5-6.121,10.589-8.661C435.9,285.723,453.59,256.557,419.006,249.12Z" transform="translate(-290.252 76.913)" fill="#9d4d36"/>
  <path id="Path_304" data-name="Path 304" d="M241.908,211.82,184.34,178.43v21.546l57.568,33.3Z" transform="translate(379.828 367.651)" fill="#bbcee1"/>
  <path id="Path_305" data-name="Path 305" d="M243.836,167.26l-59.5,34.186,57.568,33.39,59.557-34.216Z" transform="translate(379.828 344.635)" fill="#fff"/>
  <path id="Path_306" data-name="Path 306" d="M262.707,178.16,203.15,212.376V233.83l59.557-34.461Z" transform="translate(418.586 367.095)" fill="#a7bcce"/>
  <path id="Path_307" data-name="Path 307" d="M241.908,200.34,184.34,166.92v21.546l57.568,33.3Z" transform="translate(379.828 343.935)" fill="#bbcee1"/>
  <path id="Path_308" data-name="Path 308" d="M243.836,155.75l-59.5,34.186,57.568,33.42,59.557-34.247Z" transform="translate(379.828 320.919)" fill="#fff"/>
  <path id="Path_309" data-name="Path 309" d="M262.707,166.65,203.15,200.9V222.32l59.557-34.461Z" transform="translate(418.586 343.379)" fill="#a7bcce"/>
  <path id="Path_310" data-name="Path 310" d="M210.077,230.26,152.54,196.84v21.546l57.568,33.3Z" transform="translate(314.305 405.584)" fill="#bbcee1"/>
  <path id="Path_311" data-name="Path 311" d="M212.036,185.67l-59.5,34.186,57.537,33.42,59.587-34.247Z" transform="translate(314.305 382.569)" fill="#fff"/>
  <path id="Path_312" data-name="Path 312" d="M230.927,196.57,171.34,230.817l.031,21.423,59.557-34.461Z" transform="translate(353.042 405.028)" fill="#a7bcce"/>
  <path id="Path_313" data-name="Path 313" d="M210.077,218.73,152.54,185.34v21.515l57.568,33.329Z" transform="translate(314.305 381.889)" fill="#bbcee1"/>
  <path id="Path_314" data-name="Path 314" d="M212.036,174.17l-59.5,34.185,57.537,33.39,59.587-34.216Z" transform="translate(314.305 358.873)" fill="#fff"/>
  <path id="Path_315" data-name="Path 315" d="M230.927,185.07,171.34,219.286l.031,21.454,59.557-34.461Z" transform="translate(353.042 381.333)" fill="#a7bcce"/>
  <path id="Path_316" data-name="Path 316" d="M178.277,248.65,120.74,215.26v21.515L178.277,270.1Z" transform="translate(248.782 443.538)" fill="#bbcee1"/>
  <path id="Path_317" data-name="Path 317" d="M180.236,204.09l-59.5,34.186,57.537,33.39,59.587-34.216Z" transform="translate(248.782 420.523)" fill="#fff"/>
  <path id="Path_318" data-name="Path 318" d="M199.127,214.99,139.54,249.206V270.66L199.127,236.2Z" transform="translate(287.519 442.982)" fill="#a7bcce"/>
  <path id="Path_319" data-name="Path 319" d="M178.277,237.14,120.74,203.75V225.3l57.537,33.3Z" transform="translate(248.782 419.822)" fill="#bbcee1"/>
  <path id="Path_320" data-name="Path 320" d="M180.236,192.58l-59.5,34.186,57.537,33.39,59.587-34.216Z" transform="translate(248.782 396.807)" fill="#fff"/>
  <path id="Path_321" data-name="Path 321" d="M199.127,203.48,139.54,237.7V259.15l59.587-34.461Z" transform="translate(287.519 419.266)" fill="#a7bcce"/>
  <path id="Path_322" data-name="Path 322" d="M521.491,370.006l-3.611-2.112a32.74,32.74,0,0,1-8.477,2.051v3.06h-8.784v-3.06a33.374,33.374,0,0,1-8.478-2.051l-3.581,2.112-6.121-3.611,3.611-2.081a11.508,11.508,0,0,1-3.55-4.9h-5.08v-5.111h4.836a11.418,11.418,0,0,1,3.489-4.9l-3.489-1.959,6.121-3.611,3.611,2.081a34.1,34.1,0,0,1,8.447-2.02v-3.06h8.784v3.06a34.588,34.588,0,0,1,8.508,2.02l3.581-2.081,6.121,3.611-3.611,2.081a11.325,11.325,0,0,1,3.55,4.9h5.081v5.08h-4.9a11.419,11.419,0,0,1-3.489,4.9l3.611,2.081Zm-24.668-8.416a18.026,18.026,0,0,0,16.312,0c4.468-2.632,4.438-6.855,0-9.457a17.966,17.966,0,0,0-16.282,0c-4.5,2.6-4.468,6.825,0,9.457" transform="translate(-76.467 265.9)" fill="#1c75bc"/>
  <path id="Path_323" data-name="Path 323" d="M193.685,180.24l5.6,11.936,5.6,11.966-20.658-3.214-20.658-3.183,15.058-8.753Z" transform="translate(337.032 371.38)" fill="#ef4136"/>
  <path id="Path_324" data-name="Path 324" d="M548.421,318.508c-3.06-1.806-1.714-4.407,4.224-7.866a26.382,26.382,0,0,1,7.835-3.06,8.172,8.172,0,0,1,5.662.49,4.132,4.132,0,0,1,1.5,1.377,7.032,7.032,0,0,1,.7,1.561l5.448-1.347a6.763,6.763,0,0,0-1.438-2.357,8.812,8.812,0,0,0-2.326-1.775,16.373,16.373,0,0,0-10.13-1.867,31.368,31.368,0,0,0-12.242,4.254,15.3,15.3,0,0,0-7.315,6.978c-.734,2.234.336,4.162,3.061,5.845a15.975,15.975,0,0,0,6.121,2.051l4.223-2.448A16.188,16.188,0,0,1,548.421,318.508Z" transform="translate(52.718 188.981)" fill="#91a6b7"/>
  <path id="Path_325" data-name="Path 325" d="M565.951,319.425a5.356,5.356,0,0,0,0-4.009,5.324,5.324,0,0,1-.429-2.785,2.694,2.694,0,0,1,1.5-1.745,6.122,6.122,0,0,1,2.693-.857,4.775,4.775,0,0,1,2.54.581,5.725,5.725,0,0,1,1.622,1.377,13.159,13.159,0,0,1,.888,1.53l5.386-1.286a9.181,9.181,0,0,0-4.04-4.254,12.856,12.856,0,0,0-6.856-1.714,13.956,13.956,0,0,0-7.039,1.959,9.882,9.882,0,0,0-2.571,2.02,5.168,5.168,0,0,0-1.01,2.112,6.117,6.117,0,0,0,.337,2.724,5.661,5.661,0,0,1,.367,3.06,2.693,2.693,0,0,1-1.5,1.836,5.476,5.476,0,0,1-2.724.765,5.356,5.356,0,0,1-2.846-.735,7.988,7.988,0,0,1-3.428-4.162l-4.683,2.724a10.467,10.467,0,0,0,4.407,4.07,13.5,13.5,0,0,0,7.162,1.928,14.721,14.721,0,0,0,7.284-2.142A7.1,7.1,0,0,0,565.951,319.425Z" transform="translate(61.049 194.643)" fill="#91a6b7"/>
  <path id="Path_326" data-name="Path 326" d="M580.921,310.807a13.068,13.068,0,0,0-6.855-1.744,14.476,14.476,0,0,0-7.039,1.989,9.181,9.181,0,0,0-2.54,2.02,4.5,4.5,0,0,0-1.01,2.112,5.538,5.538,0,0,0,.336,2.693,6.123,6.123,0,0,1,.367,3.061,3.06,3.06,0,0,1-1.5,1.836,5.815,5.815,0,0,1-2.755.765,5.233,5.233,0,0,1-2.816-.735,7.865,7.865,0,0,1-3.428-4.162L549,321.366a10.19,10.19,0,0,0,4.377,4.07,13.867,13.867,0,0,0,7.162,1.928,14.845,14.845,0,0,0,7.315-2.142,7.193,7.193,0,0,0,3.06-2.877,5.3,5.3,0,0,0,0-4.04,5.57,5.57,0,0,1-.429-2.755,2.878,2.878,0,0,1,1.53-1.775,6.122,6.122,0,0,1,2.693-.826,4.53,4.53,0,0,1,2.54.582,5.142,5.142,0,0,1,1.591,1.377,9.852,9.852,0,0,1,.888,1.53l5.386-1.316a9.181,9.181,0,0,0-4.193-4.315Z" transform="translate(71.022 200.415)" fill="#91a6b7"/>
  <path id="Path_327" data-name="Path 327" d="M598.777,269l-55.915-32.227a5.173,5.173,0,0,0-5.57.214h0l-12.242,7.07,5.723,7.743,2.112,2.448v55.364a9.182,9.182,0,0,0,4.621,7.988L579.343,341.8l.428,2.326L588.31,356.1l13.129-7.743h0a4.193,4.193,0,0,0,1.989-3.581V277.443A9.61,9.61,0,0,0,598.777,269Z" transform="translate(21.674 49.998)" fill="#79ff68"/>
  <path id="Path_328" data-name="Path 328" d="M587.069,271.638l-56.557-32.625a4.132,4.132,0,0,0-6.121,3.581v67.82a9.182,9.182,0,0,0,4.622,8.018l56.527,32.686a4.285,4.285,0,0,0,6.4-3.673V279.81a9.61,9.61,0,0,0-4.867-8.172Z" transform="translate(20.314 55.037)" fill="#50e85e"/>
  <path id="Path_329" data-name="Path 329" d="M545.73,275.26Z" transform="translate(64.284 130.774)" fill="#bbcee1"/>
  <path id="Path_330" data-name="Path 330" d="M547.728,326.788V259.273a9.182,9.182,0,0,0-.673-3.244l13.129-7.559a9.764,9.764,0,0,1,.612,3.061v67.33a4.193,4.193,0,0,1-1.989,3.581h0L545.8,330.093a4.162,4.162,0,0,0,1.928-3.305Z" transform="translate(64.429 75.573)" fill="#3cc743"/>
  <path id="Path_331" data-name="Path 331" d="M619.658,225.018,563.743,192.76a5.3,5.3,0,0,0-5.6.214h0l-12.242,7.1,5.723,7.712,2.112,2.448V265.6a9.182,9.182,0,0,0,4.622,8.018L600.193,297.8l.428,2.326,8.539,11.966,13.129-7.712h0a4.131,4.131,0,0,0,1.989-3.581V233.465A9.487,9.487,0,0,0,619.658,225.018Z" transform="translate(64.635 -40.655)" fill="#9263c1"/>
  <path id="Path_332" data-name="Path 332" d="M607.969,227.655,551.411,195a4.162,4.162,0,0,0-6.121,3.611V266.4a9.182,9.182,0,0,0,4.622,7.988l56.527,32.686A4.254,4.254,0,0,0,612.8,303.4V235.8a9.487,9.487,0,0,0-4.835-8.141Z" transform="translate(63.378 -35.61)" fill="#8444b2"/>
  <path id="Path_333" data-name="Path 333" d="M566.62,231.26Z" transform="translate(107.328 40.112)" fill="#bbcee1"/>
  <path id="Path_334" data-name="Path 334" d="M568.639,282.788V215.273a9,9,0,0,0-.643-3.244l13.129-7.559a9.89,9.89,0,0,1,.581,3.061v67.33a4.131,4.131,0,0,1-1.989,3.581h0l-13.038,7.651A4.193,4.193,0,0,0,568.639,282.788Z" transform="translate(107.451 -15.088)" fill="#7231a3"/>
  <path id="Path_335" data-name="Path 335" d="M558.719,225.338,502.713,193.08a5.294,5.294,0,0,0-5.6.214h0l-12.242,7.07,5.723,7.743,2.112,2.448V265.92a9.181,9.181,0,0,0,4.621,8.018l41.837,24.178.428,2.326,8.539,11.966,13.13-7.712h0a4.193,4.193,0,0,0,1.99-3.581v-67.33a9.487,9.487,0,0,0-4.53-8.447Z" transform="translate(-61.116 -39.995)" fill="#ffa8e1"/>
  <path id="Path_336" data-name="Path 336" d="M546.9,227.968l-56.558-32.625a4.132,4.132,0,0,0-6.121,3.611v67.667a9.181,9.181,0,0,0,4.621,8.018l56.527,32.686a4.254,4.254,0,0,0,6.366-3.672V236.324a9.488,9.488,0,0,0-4.835-8.355Z" transform="translate(-62.456 -34.944)" fill="#ff7ad2"/>
  <path id="Path_337" data-name="Path 337" d="M505.55,231.58Z" transform="translate(-18.506 40.772)" fill="#bbcee1"/>
  <path id="Path_338" data-name="Path 338" d="M507.569,282.984v-67.33a9,9,0,0,0-.643-3.244l13.129-7.559a9.885,9.885,0,0,1,.582,3.061v67.33a4.194,4.194,0,0,1-1.989,3.581h0l-13.038,7.651A4.193,4.193,0,0,0,507.569,282.984Z" transform="translate(-18.382 -14.305)" fill="#de64c6"/>
  <path id="Path_339" data-name="Path 339" d="M518.7,182.575l-55.976-32.1a5.3,5.3,0,0,0-5.6.214h0l-12.242,7.1,5.693,7.712,2.142,2.448V223.31a9.181,9.181,0,0,0,4.591,8.019l41.837,24.178.428,2.326L508.11,269.8l13.13-7.712h0a4.1,4.1,0,0,0,2.02-3.581V191.175a9.518,9.518,0,0,0-4.56-8.6Z" transform="translate(-143.515 -127.792)" fill="#fcec32"/>
  <path id="Path_340" data-name="Path 340" d="M506.9,185.315,450.341,152.66a4.162,4.162,0,0,0-6.121,3.611v67.7a9.182,9.182,0,0,0,4.622,7.988L505.4,264.643a4.254,4.254,0,0,0,6.366-3.673V193.64a9.457,9.457,0,0,0-4.866-8.324Z" transform="translate(-144.875 -122.851)" fill="#f5d012"/>
  <path id="Path_341" data-name="Path 341" d="M465.56,188.92Z" transform="translate(-100.904 -47.128)" fill="#bbcee1"/>
  <path id="Path_342" data-name="Path 342" d="M467.579,240.324V172.993a9.7,9.7,0,0,0-.642-3.244l13.1-7.559a9.184,9.184,0,0,1,.612,3.06v67.33a4.1,4.1,0,0,1-2.02,3.581h0l-13.007,7.651a4.254,4.254,0,0,0,1.959-3.489Z" transform="translate(-100.78 -102.205)" fill="#eaa10c"/>
  <path id="Path_343" data-name="Path 343" d="M529.526,220.434A35.868,35.868,0,0,0,517.1,207.3a12.518,12.518,0,0,0-12.487-1.255c-6.121,3.489-6.825,13.986-2.081,24.484l-15.3,8.753,4.468,7.743,15.3-8.753a33.235,33.235,0,0,0,10.008,9.365,12.487,12.487,0,0,0,12.425,1.255C536.351,245.1,536.381,232.308,529.526,220.434Zm-4.56,20.842a8.018,8.018,0,0,1-7.957-.8,22.708,22.708,0,0,1-7.957-8.386c-4.376-7.59-4.376-15.792,0-18.363a8.019,8.019,0,0,1,7.957.8,23.32,23.32,0,0,1,7.957,8.416C529.373,230.564,529.373,238.8,524.966,241.276Z" transform="translate(-56.254 -14.127)" fill="#fff"/>
  <path id="Path_344" data-name="Path 344" d="M457.262,169.146a11.908,11.908,0,0,1,2.571,1.989c.857.857,1.714,1.744,2.571,2.724l1.591-3.642a27.173,27.173,0,0,0-6.7-5.723,10.009,10.009,0,0,0-5.723-1.653,4.683,4.683,0,0,0-3.764,2.571,13.557,13.557,0,0,0-1.316,6.457,24.208,24.208,0,0,0,2.632,11.538,19.372,19.372,0,0,0,7.651,7.9,15.761,15.761,0,0,0,6.3,2.3v-4.683a17.75,17.75,0,0,1-5.845-1.989c-3.826-2.2-5.754-6.121-5.723-12.242a8.14,8.14,0,0,1,1.5-5.723C454.2,168.044,455.487,168.075,457.262,169.146Z" transform="translate(-140.227 -100.867)" fill="#8444b2"/>
  <path id="Path_345" data-name="Path 345" d="M116.128,27.2,112.7,25.21l-.031,7.039-6.06-3.52v3.948l6.06,3.52-.031,6.947,3.428,1.959.031-6.917,6.06,3.489.031-3.948-6.09-3.52Z" transform="translate(219.667 51.945)" fill="#8444b2"/>
  <path id="Path_346" data-name="Path 346" d="M122.087,37.668l.031-7.009L118.69,28.67l-.031,7.008L112.6,32.19v3.948l6.06,3.52-.031,6.917,3.428,1.989.031-6.947,6.06,3.52V41.187Z" transform="translate(232.01 59.074)" fill="#8444b2"/>
  <path id="Path_347" data-name="Path 347" d="M555.761,204.489a5.356,5.356,0,0,0-.918,3.673v8.324c0,1.53-.49,2.357-1.469,2.448a7.8,7.8,0,0,1-4.223-1.408v5.509a14.323,14.323,0,0,1,4.193,3.458,6.947,6.947,0,0,1,1.469,4.407v7.988a11.568,11.568,0,0,0,.888,4.774,12.242,12.242,0,0,0,3.06,3.887,30.887,30.887,0,0,0,5.478,3.856V246.08a9.486,9.486,0,0,1-3.06-2.724,6.3,6.3,0,0,1-.8-3.06v-8.08a10.558,10.558,0,0,0-5.05-8.386v-.306c3.336,1.377,5.019.428,5.08-2.816v-7.651c0-1.224.276-1.989.826-2.234s1.561,0,3.061.8v-5.325a21.885,21.885,0,0,0-5.448-2.448A3.06,3.06,0,0,0,555.761,204.489Z" transform="translate(71.331 -16.728)" fill="#fff"/>
  <path id="Path_348" data-name="Path 348" d="M568.872,231.924a6.671,6.671,0,0,1-1.438-4.162v-8.355a10.9,10.9,0,0,0-2.081-6.733,23.2,23.2,0,0,0-7.192-5.754v5.325a9.181,9.181,0,0,1,3.061,2.693,6.121,6.121,0,0,1,.8,3.06v7.651a11.109,11.109,0,0,0,5.111,8.722v.306a4.988,4.988,0,0,0-3.795-.4c-.888.429-1.347,1.408-1.347,3.061v7.9c0,1.224-.276,1.989-.8,2.265s-1.591,0-3.06-.826V252a13.1,13.1,0,0,0,7.253,2.571c1.377-.275,2.081-1.714,2.081-4.346v-7.988c0-1.653.489-2.571,1.438-2.724a7.591,7.591,0,0,1,4.223,1.408v-5.631a14.84,14.84,0,0,1-4.254-3.367Z" transform="translate(89.834 -10.04)" fill="#fff"/>
  <path id="Path_349" data-name="Path 349" d="M180.3,112.287l17.506,19.036.031-4.866-12.089-12.7,12.119.551v-4.866L180.3,109.38Z" transform="translate(371.504 225.375)" fill="#1f5e77"/>
  <path id="Path_350" data-name="Path 350" d="M186.61,134.5l4.9,2.816,9.732-24.147-4.927-2.816Z" transform="translate(384.506 227.374)" fill="#1f5e77"/>
  <path id="Path_351" data-name="Path 351" d="M191.981,112.81v4.866l12.089,13.4-12.119-1.255-.031,4.866,17.6,1.224v-2.907Z" transform="translate(395.447 232.442)" fill="#1f5e77"/>
  <path id="Path_352" data-name="Path 352" d="M73.83,81.28v3.275L87.6,92.481V89.207Z" transform="translate(152.125 167.476)" fill="#f5d012"/>
  <path id="Path_353" data-name="Path 353" d="M73.83,83.23V86.5L87.6,94.462V91.187Z" transform="translate(152.125 171.494)" fill="#edf0f8"/>
  <path id="Path_354" data-name="Path 354" d="M73.83,85.19v3.275L87.6,96.391V93.117Z" transform="translate(152.125 175.532)" fill="#edf0f8"/>
  <path id="Path_355" data-name="Path 355" d="M164.969,142.983v-3.275l-84.959-49v3.275Z" transform="translate(164.859 186.906)" fill="#edf0f8"/>
  <path id="Path_356" data-name="Path 356" d="M73.83,87.14v3.275L87.6,98.372V95.1Z" transform="translate(152.125 179.55)" fill="#edf0f8"/>
  <path id="Path_357" data-name="Path 357" d="M73.83,89.1v3.275L87.6,100.3V97.027Z" transform="translate(152.125 183.589)" fill="#edf0f8"/>
  <path id="Path_358" data-name="Path 358" d="M164.969,144.912v-3.275L80.01,92.67v3.244Z" transform="translate(164.859 190.944)" fill="#50e85e"/>
  <path id="Path_359" data-name="Path 359" d="M73.83,94.96v3.275L87.6,106.192v-3.275Z" transform="translate(152.125 195.663)" fill="#edf0f8"/>
  <path id="Path_360" data-name="Path 360" d="M73.83,96.92v3.275L87.6,108.121v-3.275Z" transform="translate(152.125 199.701)" fill="#f5d012"/>
  <path id="Path_361" data-name="Path 361" d="M73.83,104.74v3.275L87.6,115.972v-3.305Z" transform="translate(152.125 215.814)" fill="#edf0f8"/>
  <path id="Path_362" data-name="Path 362" d="M73.83,106.7v3.275L87.6,117.9v-3.275Z" transform="translate(152.125 219.853)" fill="#edf0f8"/>
  <path id="Path_363" data-name="Path 363" d="M133.6,141.171,80.01,110.26v3.275L133.6,144.445Z" transform="translate(164.859 227.188)" fill="#50e85e"/>
  <path id="Path_364" data-name="Path 364" d="M98.44,120.89V124.2l28.554,16.435v-3.275Z" transform="translate(202.833 249.091)" fill="#edf0f8"/>
  <path id="Path_365" data-name="Path 365" d="M106.942,123.827,80.01,108.31v3.275L106.942,127.1Z" transform="translate(164.859 223.17)" fill="#edf0f8"/>
  <path id="Path_366" data-name="Path 366" d="M89.73,113.92v3.244l55.211,31.86v-3.275Z" transform="translate(184.887 234.73)" fill="#edf0f8"/>
  <path id="Path_367" data-name="Path 367" d="M105.39,117.08v3.275l7.284,4.193v-3.275Z" transform="translate(217.154 241.241)" fill="#edf0f8"/>
  <path id="Path_368" data-name="Path 368" d="M118.174,122.495l-38.164-22v3.275l38.164,22Z" transform="translate(164.859 207.057)" fill="#ed5561"/>
  <path id="Path_369" data-name="Path 369" d="M102.535,97.847,80.01,84.84v3.275l22.525,13.007Z" transform="translate(164.859 174.811)" fill="#edf0f8"/>
  <path id="Path_370" data-name="Path 370" d="M122.394,109.3,88.3,89.62v3.275l34.094,19.679Z" transform="translate(181.94 184.66)" fill="#edf0f8"/>
  <path id="Path_371" data-name="Path 371" d="M109.094,103.594,85.1,89.73V93l23.994,13.864Z" transform="translate(175.347 184.887)" fill="#edf0f8"/>
  <path id="Path_372" data-name="Path 372" d="M116.242,107.675,93.87,94.79v3.275l22.372,12.915Z" transform="translate(193.417 195.313)" fill="#ed5561"/>
  <path id="Path_373" data-name="Path 373" d="M102.1,99.54v3.275l17.353,10.008v-3.275Z" transform="translate(210.375 205.1)" fill="#edf0f8"/>
  <path id="Path_374" data-name="Path 374" d="M81.46,89.59v3.275L99.547,103.3v-3.275Z" transform="translate(167.846 184.598)" fill="#ed5561"/>
  <path id="Path_375" data-name="Path 375" d="M140.787,123.829,88.3,93.53V96.8l52.487,30.3Z" transform="translate(181.94 192.716)" fill="#edf0f8"/>
  <path id="Path_376" data-name="Path 376" d="M118.728,116.961,84.42,97.16v3.275l34.308,19.8Z" transform="translate(173.945 200.196)" fill="#edf0f8"/>
  <path id="Path_377" data-name="Path 377" d="M123.788,119.86,96.55,104.16v3.275l27.238,15.7Z" transform="translate(198.939 214.619)" fill="#edf0f8"/>
  <path id="Path_378" data-name="Path 378" d="M127.259,127.736,93.41,108.21v3.275l33.849,19.526Z" transform="translate(192.469 222.964)" fill="#edf0f8"/>
  <path id="Path_379" data-name="Path 379" d="M98.44,113.07v3.275L116.895,127V123.72Z" transform="translate(202.833 232.978)" fill="#50e85e"/>
  <path id="Path_380" data-name="Path 380" d="M86.651,106.266,80.01,102.44v3.275l6.641,3.826Z" transform="translate(164.859 211.075)" fill="#edf0f8"/>
  <path id="Path_381" data-name="Path 381" d="M86.25,106.04v3.275l34.492,19.893v-3.275Z" transform="translate(177.716 218.493)" fill="#edf0f8"/>
  <path id="Path_382" data-name="Path 382" d="M89.9,108.147,83.11,104.23V107.5l6.794,3.917Z" transform="translate(171.246 214.764)" fill="#edf0f8"/>
  <path id="Path_383" data-name="Path 383" d="M120.846,127.94,83.11,106.18v3.275l37.736,21.76Z" transform="translate(171.246 218.781)" fill="#edf0f8"/>
  <path id="Path_384" data-name="Path 384" d="M109.72,101.99v.888l3.795,2.2v-.918Z" transform="translate(226.076 210.148)" fill="#edf0f8"/>
  <path id="Path_385" data-name="Path 385" d="M109.72,102.53v.888l3.795,2.2V104.7Z" transform="translate(226.076 211.261)" fill="#edf0f8"/>
  <path id="Path_386" data-name="Path 386" d="M109.72,103.07v.888l3.795,2.2v-.918Z" transform="translate(226.076 212.373)" fill="#edf0f8"/>
  <path id="Path_387" data-name="Path 387" d="M134.833,118.974v-.888l-23.413-13.5v.888Z" transform="translate(229.578 215.505)" fill="#edf0f8"/>
  <path id="Path_388" data-name="Path 388" d="M109.72,103.61v.888l3.795,2.173v-.888Z" transform="translate(226.076 213.486)" fill="#edf0f8"/>
  <path id="Path_389" data-name="Path 389" d="M109.72,104.14v.918l3.795,2.173v-.888Z" transform="translate(226.076 214.578)" fill="#edf0f8"/>
  <path id="Path_390" data-name="Path 390" d="M134.833,119.514v-.888l-23.413-13.5v.888Z" transform="translate(229.578 216.618)" fill="#edf0f8"/>
  <path id="Path_391" data-name="Path 391" d="M109.72,105.76v.918l3.795,2.173v-.888Z" transform="translate(226.076 217.916)" fill="#edf0f8"/>
  <path id="Path_392" data-name="Path 392" d="M109.72,106.3v.888l3.795,2.2v-.918Z" transform="translate(226.076 219.029)" fill="#edf0f8"/>
  <path id="Path_393" data-name="Path 393" d="M109.72,108.45v.918l3.795,2.2v-.918Z" transform="translate(226.076 223.459)" fill="#edf0f8"/>
  <path id="Path_394" data-name="Path 394" d="M109.72,108.99v.918l3.795,2.173v-.888Z" transform="translate(226.076 224.571)" fill="#edf0f8"/>
  <path id="Path_395" data-name="Path 395" d="M126.2,118.488,111.42,109.98v.888l14.782,8.508Z" transform="translate(229.578 226.611)" fill="#edf0f8"/>
  <path id="Path_396" data-name="Path 396" d="M116.5,112.91v.888l7.865,4.529v-.888Z" transform="translate(240.046 232.649)" fill="#edf0f8"/>
  <path id="Path_397" data-name="Path 397" d="M118.857,113.725l-7.437-4.285v.888l7.437,4.285Z" transform="translate(229.578 225.499)" fill="#edf0f8"/>
  <path id="Path_398" data-name="Path 398" d="M114.1,110.98v.918l15.211,8.753v-.888Z" transform="translate(235.1 228.672)" fill="#edf0f8"/>
  <path id="Path_399" data-name="Path 399" d="M118.42,111.86v.888l1.989,1.163v-.918Z" transform="translate(244.002 230.485)" fill="#edf0f8"/>
  <path id="Path_400" data-name="Path 400" d="M121.948,113.34l-10.528-6.06v.918l10.528,6.06Z" transform="translate(229.578 221.048)" fill="#edf0f8"/>
  <path id="Path_401" data-name="Path 401" d="M117.633,106.551l-6.213-3.581v.918l6.213,3.581Z" transform="translate(229.578 212.167)" fill="#edf0f8"/>
  <path id="Path_402" data-name="Path 402" d="M123.126,109.707,113.7,104.29v.888l9.426,5.417Z" transform="translate(234.276 214.887)" fill="#edf0f8"/>
  <path id="Path_403" data-name="Path 403" d="M119.431,108.146l-6.611-3.826v.888l6.611,3.826Z" transform="translate(232.463 214.949)" fill="#edf0f8"/>
  <path id="Path_404" data-name="Path 404" d="M121.392,109.26l-6.152-3.55v.918l6.152,3.55Z" transform="translate(237.449 217.813)" fill="#edf0f8"/>
  <path id="Path_405" data-name="Path 405" d="M117.51,107.02v.918l4.774,2.754v-.918Z" transform="translate(242.127 220.512)" fill="#edf0f8"/>
  <path id="Path_406" data-name="Path 406" d="M111.82,104.28v.918l4.989,2.846v-.888Z" transform="translate(230.403 214.867)" fill="#edf0f8"/>
  <path id="Path_407" data-name="Path 407" d="M128.176,113.694,113.7,105.37v.888l14.476,8.355Z" transform="translate(234.276 217.113)" fill="#edf0f8"/>
  <path id="Path_408" data-name="Path 408" d="M122.066,111.818l-9.426-5.448v.888l9.426,5.448Z" transform="translate(232.092 219.173)" fill="#edf0f8"/>
  <path id="Path_409" data-name="Path 409" d="M123.478,112.615l-7.5-4.315v.888l7.5,4.315Z" transform="translate(238.974 223.15)" fill="#edf0f8"/>
  <path id="Path_410" data-name="Path 410" d="M124.444,114.8l-9.334-5.386v.918l9.334,5.386Z" transform="translate(237.182 225.437)" fill="#edf0f8"/>
  <path id="Path_411" data-name="Path 411" d="M116.5,110.75v.918l5.08,2.907v-.888Z" transform="translate(240.046 228.198)" fill="#edf0f8"/>
  <path id="Path_412" data-name="Path 412" d="M113.256,108.891l-1.836-1.071v.918l1.836,1.041Z" transform="translate(229.578 222.161)" fill="#edf0f8"/>
  <path id="Path_413" data-name="Path 413" d="M113.14,108.81v.918l9.518,5.478v-.918Z" transform="translate(233.122 224.201)" fill="#edf0f8"/>
  <path id="Path_414" data-name="Path 414" d="M114.168,109.412l-1.9-1.1v.918l1.9,1.071Z" transform="translate(231.33 223.17)" fill="#edf0f8"/>
  <path id="Path_415" data-name="Path 415" d="M122.676,114.849l-10.406-6v.918l10.406,6Z" transform="translate(231.33 224.283)" fill="#edf0f8"/>
  <path id="Path_416" data-name="Path 416" d="M109.72,111.11V112l3.795,2.2v-.918Z" transform="translate(226.076 228.94)" fill="#edf0f8"/>
  <path id="Path_417" data-name="Path 417" d="M109.72,111.64v.918l3.795,2.2v-.918Z" transform="translate(226.076 230.032)" fill="#edf0f8"/>
  <path id="Path_418" data-name="Path 418" d="M109.72,112.18v.918l3.795,2.173v-.888Z" transform="translate(226.076 231.144)" fill="#edf0f8"/>
  <path id="Path_419" data-name="Path 419" d="M134.833,128.094v-.888l-23.413-13.5v.888Z" transform="translate(229.578 234.297)" fill="#edf0f8"/>
  <path id="Path_420" data-name="Path 420" d="M109.72,112.72v.918l3.795,2.173v-.888Z" transform="translate(226.076 232.257)" fill="#edf0f8"/>
  <path id="Path_421" data-name="Path 421" d="M109.72,113.26v.918l3.795,2.173v-.887Z" transform="translate(226.076 233.37)" fill="#edf0f8"/>
  <path id="Path_422" data-name="Path 422" d="M134.833,128.655v-.887L111.42,114.24v.918Z" transform="translate(229.578 235.389)" fill="#edf0f8"/>
  <path id="Path_423" data-name="Path 423" d="M109.72,114.88v.888l3.795,2.2v-.918Z" transform="translate(226.076 236.708)" fill="#edf0f8"/>
  <path id="Path_424" data-name="Path 424" d="M109.72,115.42v.888l3.795,2.2v-.918Z" transform="translate(226.076 237.82)" fill="#edf0f8"/>
  <path id="Path_425" data-name="Path 425" d="M109.72,117.57v.918l3.795,2.173v-.888Z" transform="translate(226.076 242.25)" fill="#edf0f8"/>
  <path id="Path_426" data-name="Path 426" d="M109.72,118.11v.918l3.795,2.173v-.888Z" transform="translate(226.076 243.363)" fill="#edf0f8"/>
  <path id="Path_427" data-name="Path 427" d="M126.2,127.629,111.42,119.09v.918l14.782,8.508Z" transform="translate(229.578 245.382)" fill="#edf0f8"/>
  <path id="Path_428" data-name="Path 428" d="M116.5,122.02v.918l7.865,4.53v-.918Z" transform="translate(240.046 251.419)" fill="#edf0f8"/>
  <path id="Path_429" data-name="Path 429" d="M118.857,122.814l-7.437-4.254v.888l7.437,4.285Z" transform="translate(229.578 244.29)" fill="#edf0f8"/>
  <path id="Path_430" data-name="Path 430" d="M114.1,120.1v.888l15.211,8.784v-.888Z" transform="translate(235.1 247.463)" fill="#edf0f8"/>
  <path id="Path_431" data-name="Path 431" d="M118.42,120.97v.918l1.989,1.132v-.888Z" transform="translate(244.002 249.256)" fill="#edf0f8"/>
  <path id="Path_432" data-name="Path 432" d="M121.948,122.46,111.42,116.4v.888l10.528,6.09Z" transform="translate(229.578 239.84)" fill="#edf0f8"/>
  <path id="Path_433" data-name="Path 433" d="M117.633,115.671l-6.213-3.581v.888l6.213,3.581Z" transform="translate(229.578 230.959)" fill="#edf0f8"/>
  <path id="Path_434" data-name="Path 434" d="M123.126,118.827,113.7,113.41v.888l9.426,5.417Z" transform="translate(234.276 233.679)" fill="#edf0f8"/>
  <path id="Path_435" data-name="Path 435" d="M119.431,117.235l-6.611-3.795v.888l6.611,3.826Z" transform="translate(232.463 233.741)" fill="#edf0f8"/>
  <path id="Path_436" data-name="Path 436" d="M121.392,118.38l-6.152-3.55v.918l6.152,3.55Z" transform="translate(237.449 236.605)" fill="#edf0f8"/>
  <path id="Path_437" data-name="Path 437" d="M117.51,116.14v.888l4.774,2.754v-.888Z" transform="translate(242.127 239.304)" fill="#edf0f8"/>
  <path id="Path_438" data-name="Path 438" d="M111.82,113.4v.888l4.989,2.877v-.888Z" transform="translate(230.403 233.658)" fill="#edf0f8"/>
  <path id="Path_439" data-name="Path 439" d="M128.176,122.835,113.7,114.48v.918l14.476,8.325Z" transform="translate(234.276 235.883)" fill="#edf0f8"/>
  <path id="Path_440" data-name="Path 440" d="M122.066,120.958l-9.426-5.478v.918l9.426,5.448Z" transform="translate(232.092 237.944)" fill="#edf0f8"/>
  <path id="Path_441" data-name="Path 441" d="M123.478,121.756l-7.5-4.346v.918l7.5,4.315Z" transform="translate(238.974 241.921)" fill="#edf0f8"/>
  <path id="Path_442" data-name="Path 442" d="M124.444,123.916l-9.334-5.386v.888l9.334,5.386Z" transform="translate(237.182 244.228)" fill="#edf0f8"/>
  <path id="Path_443" data-name="Path 443" d="M116.5,119.87v.888l5.08,2.938v-.888Z" transform="translate(240.046 246.989)" fill="#edf0f8"/>
  <path id="Path_444" data-name="Path 444" d="M113.256,117.981l-1.836-1.041v.888l1.836,1.071Z" transform="translate(229.578 240.952)" fill="#edf0f8"/>
  <path id="Path_445" data-name="Path 445" d="M113.14,117.93v.888l9.518,5.509v-.918Z" transform="translate(233.122 242.992)" fill="#edf0f8"/>
  <path id="Path_446" data-name="Path 446" d="M114.168,118.5l-1.9-1.071v.888l1.9,1.1Z" transform="translate(231.33 241.962)" fill="#edf0f8"/>
  <path id="Path_447" data-name="Path 447" d="M122.676,123.969l-10.406-6v.888l10.406,6Z" transform="translate(231.33 243.074)" fill="#edf0f8"/>
  <path id="Path_448" data-name="Path 448" d="M109.72,120.22v.918l3.795,2.173v-.888Z" transform="translate(226.076 247.711)" fill="#edf0f8"/>
  <path id="Path_449" data-name="Path 449" d="M109.72,120.76v.918l3.795,2.173v-.888Z" transform="translate(226.076 248.823)" fill="#edf0f8"/>
  <path id="Path_450" data-name="Path 450" d="M109.72,121.3v.918l3.795,2.173V123.5Z" transform="translate(226.076 249.936)" fill="#edf0f8"/>
  <path id="Path_451" data-name="Path 451" d="M134.833,137.235v-.918l-23.413-13.5v.918Z" transform="translate(229.578 253.068)" fill="#edf0f8"/>
  <path id="Path_452" data-name="Path 452" d="M109.72,121.84v.918l3.795,2.173v-.888Z" transform="translate(226.076 251.049)" fill="#edf0f8"/>
  <path id="Path_453" data-name="Path 453" d="M109.72,122.38v.888l3.795,2.2v-.918Z" transform="translate(226.076 252.161)" fill="#edf0f8"/>
  <path id="Path_454" data-name="Path 454" d="M134.833,137.775v-.918l-23.413-13.5v.918Z" transform="translate(229.578 254.18)" fill="#edf0f8"/>
  <path id="Path_455" data-name="Path 455" d="M109.72,124v.888l3.795,2.173v-.888Z" transform="translate(226.076 255.499)" fill="#edf0f8"/>
  <path id="Path_456" data-name="Path 456" d="M109.72,124.53v.918l3.795,2.173v-.888Z" transform="translate(226.076 256.591)" fill="#edf0f8"/>
  <path id="Path_457" data-name="Path 457" d="M109.72,126.69v.888l3.795,2.2v-.918Z" transform="translate(226.076 261.042)" fill="#edf0f8"/>
  <path id="Path_458" data-name="Path 458" d="M109.72,127.23v.887l3.795,2.2V129.4Z" transform="translate(226.076 262.155)" fill="#edf0f8"/>
  <path id="Path_459" data-name="Path 459" d="M126.2,136.718,111.42,128.21v.918l14.782,8.508Z" transform="translate(229.578 264.174)" fill="#edf0f8"/>
  <path id="Path_460" data-name="Path 460" d="M116.5,131.14v.918l7.865,4.53v-.918Z" transform="translate(240.046 270.211)" fill="#edf0f8"/>
  <path id="Path_461" data-name="Path 461" d="M118.857,131.955l-7.437-4.285v.918l7.437,4.285Z" transform="translate(229.578 263.061)" fill="#edf0f8"/>
  <path id="Path_462" data-name="Path 462" d="M114.1,129.22v.888l15.211,8.784v-.918Z" transform="translate(235.1 266.255)" fill="#edf0f8"/>
  <path id="Path_463" data-name="Path 463" d="M118.42,130.09v.888l1.989,1.163v-.888Z" transform="translate(244.002 268.047)" fill="#edf0f8"/>
  <path id="Path_464" data-name="Path 464" d="M121.948,131.58l-10.528-6.06v.888l10.528,6.06Z" transform="translate(229.578 258.631)" fill="#edf0f8"/>
  <path id="Path_465" data-name="Path 465" d="M117.633,124.791l-6.213-3.581v.888l6.213,3.581Z" transform="translate(229.578 249.75)" fill="#edf0f8"/>
  <path id="Path_466" data-name="Path 466" d="M123.126,127.937,113.7,122.52v.918l9.426,5.417Z" transform="translate(234.276 252.45)" fill="#edf0f8"/>
  <path id="Path_467" data-name="Path 467" d="M119.431,126.376l-6.611-3.826v.918l6.611,3.795Z" transform="translate(232.463 252.511)" fill="#edf0f8"/>
  <path id="Path_468" data-name="Path 468" d="M121.392,127.5l-6.152-3.55v.888l6.152,3.55Z" transform="translate(237.449 255.396)" fill="#edf0f8"/>
  <path id="Path_469" data-name="Path 469" d="M117.51,125.25v.918l4.774,2.754v-.888Z" transform="translate(242.127 258.075)" fill="#edf0f8"/>
  <path id="Path_470" data-name="Path 470" d="M111.82,122.51v.918l4.989,2.877v-.918Z" transform="translate(230.403 252.429)" fill="#edf0f8"/>
  <path id="Path_471" data-name="Path 471" d="M128.176,131.955,113.7,123.6v.888l14.476,8.355Z" transform="translate(234.276 254.675)" fill="#edf0f8"/>
  <path id="Path_472" data-name="Path 472" d="M122.066,130.048,112.64,124.6v.888l9.426,5.478Z" transform="translate(232.092 256.735)" fill="#edf0f8"/>
  <path id="Path_473" data-name="Path 473" d="M123.478,130.845l-7.5-4.315v.888l7.5,4.346Z" transform="translate(238.974 260.712)" fill="#edf0f8"/>
  <path id="Path_474" data-name="Path 474" d="M124.444,133.026l-9.334-5.386v.918l9.334,5.386Z" transform="translate(237.182 262.999)" fill="#edf0f8"/>
  <path id="Path_475" data-name="Path 475" d="M116.5,128.99v.888l5.08,2.938V131.9Z" transform="translate(240.046 265.781)" fill="#edf0f8"/>
  <path id="Path_476" data-name="Path 476" d="M113.256,127.1l-1.836-1.041v.888l1.836,1.041Z" transform="translate(229.578 259.744)" fill="#edf0f8"/>
  <path id="Path_477" data-name="Path 477" d="M113.14,127.05v.888l9.518,5.478v-.888Z" transform="translate(233.122 261.784)" fill="#edf0f8"/>
  <path id="Path_478" data-name="Path 478" d="M114.168,127.621l-1.9-1.071v.888l1.9,1.071Z" transform="translate(231.33 260.753)" fill="#edf0f8"/>
  <path id="Path_479" data-name="Path 479" d="M122.676,133.089l-10.406-6v.888l10.406,6Z" transform="translate(231.33 261.866)" fill="#edf0f8"/>
  <path id="Path_480" data-name="Path 480" d="M109.72,129.34v.918l3.795,2.173v-.888Z" transform="translate(226.076 266.502)" fill="#edf0f8"/>
  <path id="Path_481" data-name="Path 481" d="M109.72,129.88v.888l3.795,2.2v-.918Z" transform="translate(226.076 267.615)" fill="#edf0f8"/>
  <path id="Path_482" data-name="Path 482" d="M109.72,130.42v.888l3.795,2.2v-.918Z" transform="translate(226.076 268.727)" fill="#edf0f8"/>
  <path id="Path_483" data-name="Path 483" d="M134.833,146.355v-.918l-23.413-13.5v.918Z" transform="translate(229.578 271.859)" fill="#edf0f8"/>
  <path id="Path_484" data-name="Path 484" d="M109.72,130.96v.887l3.795,2.2v-.918Z" transform="translate(226.076 269.84)" fill="#edf0f8"/>
  <path id="Path_485" data-name="Path 485" d="M109.72,131.5v.887l3.795,2.173v-.887Z" transform="translate(226.076 270.953)" fill="#edf0f8"/>
  <path id="Path_486" data-name="Path 486" d="M134.833,146.864v-.888l-23.413-13.5v.888Z" transform="translate(229.578 272.972)" fill="#edf0f8"/>
  <path id="Path_487" data-name="Path 487" d="M109.72,133.11v.918l3.795,2.173v-.888Z" transform="translate(226.076 274.27)" fill="#edf0f8"/>
  <path id="Path_488" data-name="Path 488" d="M109.72,133.65v.918l3.795,2.173v-.888Z" transform="translate(226.076 275.383)" fill="#edf0f8"/>
  <path id="Path_489" data-name="Path 489" d="M118.42,139.21v.888l1.989,1.163v-.918Z" transform="translate(244.002 286.839)" fill="#edf0f8"/>
  <path id="Path_490" data-name="Path 490" d="M121.948,140.72l-10.528-6.09v.918l10.528,6.06Z" transform="translate(229.578 277.402)" fill="#edf0f8"/>
  <path id="Path_491" data-name="Path 491" d="M117.633,133.9l-6.213-3.581v.918l6.213,3.581Z" transform="translate(229.578 268.521)" fill="#edf0f8"/>
  <path id="Path_492" data-name="Path 492" d="M123.126,137.057,113.7,131.64v.918l9.426,5.417Z" transform="translate(234.276 271.241)" fill="#edf0f8"/>
  <path id="Path_493" data-name="Path 493" d="M119.431,135.5l-6.611-3.826v.918l6.611,3.795Z" transform="translate(232.463 271.303)" fill="#edf0f8"/>
  <path id="Path_494" data-name="Path 494" d="M121.392,136.641l-6.152-3.581v.918l6.152,3.55Z" transform="translate(237.449 274.167)" fill="#edf0f8"/>
  <path id="Path_495" data-name="Path 495" d="M117.51,134.37v.918l4.774,2.754v-.918Z" transform="translate(242.127 276.866)" fill="#edf0f8"/>
  <path id="Path_496" data-name="Path 496" d="M111.82,131.63v.918l4.989,2.877v-.918Z" transform="translate(230.403 271.221)" fill="#edf0f8"/>
  <path id="Path_497" data-name="Path 497" d="M128.176,141.044,113.7,132.72v.888l14.476,8.355Z" transform="translate(234.276 273.467)" fill="#edf0f8"/>
  <path id="Path_498" data-name="Path 498" d="M122.066,139.168l-9.426-5.448v.888l9.426,5.448Z" transform="translate(232.092 275.527)" fill="#edf0f8"/>
  <path id="Path_499" data-name="Path 499" d="M123.478,139.965l-7.5-4.315v.888l7.5,4.346Z" transform="translate(238.974 279.504)" fill="#edf0f8"/>
  <path id="Path_500" data-name="Path 500" d="M124.444,142.146l-9.334-5.386v.918l9.334,5.386Z" transform="translate(237.182 281.791)" fill="#edf0f8"/>
  <path id="Path_501" data-name="Path 501" d="M116.5,138.1v.918l5.08,2.907v-.888Z" transform="translate(240.046 284.552)" fill="#edf0f8"/>
  <path id="Path_502" data-name="Path 502" d="M113.256,136.241l-1.836-1.071v.918l1.836,1.041Z" transform="translate(229.578 278.515)" fill="#edf0f8"/>
  <path id="Path_503" data-name="Path 503" d="M113.14,136.16v.918l9.518,5.478v-.888Z" transform="translate(233.122 280.555)" fill="#edf0f8"/>
  <path id="Path_504" data-name="Path 504" d="M114.168,136.762l-1.9-1.1v.918l1.9,1.071Z" transform="translate(231.33 279.524)" fill="#edf0f8"/>
  <path id="Path_505" data-name="Path 505" d="M122.676,142.2l-10.406-6v.918l10.406,6Z" transform="translate(231.33 280.637)" fill="#edf0f8"/>
  <path id="Path_506" data-name="Path 506" d="M420.761,224.019l-4.53-2.632a.337.337,0,0,0-.52.306v5.417a.7.7,0,0,0,.4.643l4.529,2.632a.337.337,0,0,0,.49-.306v-5.417a.673.673,0,0,0-.367-.643Z" transform="translate(-203.62 19.656)" fill="#50e85e"/>
  <path id="Path_507" data-name="Path 507" d="M420.76,226.648l-4.53-2.6a.337.337,0,0,0-.52.275v5.417a.7.7,0,0,0,.4.643l4.529,2.632a.337.337,0,0,0,.49-.306v-5.387A.765.765,0,0,0,420.76,226.648Z" transform="translate(-203.619 25.137)" fill="#50e85e"/>
  <path id="Path_508" data-name="Path 508" d="M420.76,229.3l-4.53-2.6a.337.337,0,0,0-.52.275v5.448a.8.8,0,0,0,.4.643l4.53,2.6a.306.306,0,0,0,.49-.275v-5.417A.765.765,0,0,0,420.76,229.3Z" transform="translate(-203.619 30.598)" fill="#50e85e"/>
  <path id="Path_509" data-name="Path 509" d="M420.761,231.979l-4.53-2.632a.337.337,0,0,0-.52.306v5.417a.7.7,0,0,0,.4.643l4.529,2.632a.337.337,0,0,0,.49-.306v-5.417a.673.673,0,0,0-.367-.643Z" transform="translate(-203.62 36.057)" fill="#50e85e"/>
  <path id="Path_510" data-name="Path 510" d="M420.76,234.608l-4.53-2.6a.337.337,0,0,0-.52.275V237.7a.7.7,0,0,0,.4.643l4.529,2.632a.337.337,0,0,0,.49-.306v-5.509a.734.734,0,0,0-.367-.551Z" transform="translate(-203.619 41.539)" fill="#50e85e"/>
  <path id="Path_511" data-name="Path 511" d="M420.76,237.258l-4.53-2.6a.337.337,0,0,0-.52.275v5.448a.8.8,0,0,0,.4.643l4.53,2.6a.336.336,0,0,0,.49-.275v-5.417A.765.765,0,0,0,420.76,237.258Z" transform="translate(-203.619 46.999)" fill="#50e85e"/>
  <path id="Path_512" data-name="Path 512" d="M420.761,239.939l-4.53-2.632a.337.337,0,0,0-.52.306v5.417a.7.7,0,0,0,.4.643l4.529,2.632a.337.337,0,0,0,.49-.306v-5.417A.673.673,0,0,0,420.761,239.939Z" transform="translate(-203.62 52.459)" fill="#50e85e"/>
  <path id="Path_513" data-name="Path 513" d="M420.76,242.575l-4.53-2.632a.367.367,0,0,0-.52.306v5.417a.7.7,0,0,0,.4.643l4.529,2.632a.337.337,0,0,0,.49-.306v-5.386a.734.734,0,0,0-.367-.673Z" transform="translate(-203.619 57.933)" fill="#50e85e"/>
  <path id="Path_514" data-name="Path 514" d="M420.76,245.218l-4.53-2.6a.337.337,0,0,0-.52.275v5.448a.7.7,0,0,0,.4.612l4.529,2.632a.336.336,0,0,0,.49-.275v-5.417A.765.765,0,0,0,420.76,245.218Z" transform="translate(-203.619 63.4)" fill="#50e85e"/>
  <path id="Path_515" data-name="Path 515" d="M420.761,247.9l-4.53-2.632a.337.337,0,0,0-.52.306v5.417a.735.735,0,0,0,.4.643l4.53,2.6a.306.306,0,0,0,.49-.275v-5.417A.674.674,0,0,0,420.761,247.9Z" transform="translate(-203.62 68.86)" fill="#50e85e"/>
  <path id="Path_516" data-name="Path 516" d="M420.761,250.549l-4.53-2.632a.337.337,0,0,0-.52.306v5.417a.7.7,0,0,0,.4.643l4.529,2.632a.337.337,0,0,0,.49-.306v-5.264a.735.735,0,0,0-.367-.8Z" transform="translate(-203.62 74.321)" fill="#50e85e"/>
  <path id="Path_517" data-name="Path 517" d="M420.76,253.178l-4.53-2.6a.337.337,0,0,0-.52.275V256.3a.7.7,0,0,0,.4.612l4.529,2.632a.337.337,0,0,0,.49-.306v-5.386A.765.765,0,0,0,420.76,253.178Z" transform="translate(-203.619 79.802)" fill="#50e85e"/>
  <g id="Group_6" data-name="Group 6" transform="translate(430.119 272.444)" opacity="0.4">
    <path id="Path_518" data-name="Path 518" d="M140.54,89.02v3.275l13.772,7.927V96.947Z" transform="translate(-140.54 -89.02)" fill="#fff"/>
    <path id="Path_519" data-name="Path 519" d="M140.54,90.97v3.275l13.772,7.957V98.9Z" transform="translate(-140.54 -85.002)" fill="#fff"/>
    <path id="Path_520" data-name="Path 520" d="M140.54,92.93V96.2l13.772,7.927v-3.275Z" transform="translate(-140.54 -80.964)" fill="#fff"/>
    <path id="Path_521" data-name="Path 521" d="M231.658,150.723v-3.275l-84.928-49v3.275Z" transform="translate(-127.786 -69.59)" fill="#fff"/>
    <path id="Path_522" data-name="Path 522" d="M140.54,94.88v3.275l13.772,7.957v-3.275Z" transform="translate(-140.54 -76.946)" fill="#fff"/>
    <path id="Path_523" data-name="Path 523" d="M140.54,96.84v3.275l13.772,7.927v-3.275Z" transform="translate(-140.54 -72.907)" fill="#fff"/>
    <path id="Path_524" data-name="Path 524" d="M231.658,152.652v-3.275L146.73,100.41v3.244Z" transform="translate(-127.786 -65.551)" fill="#fff"/>
    <path id="Path_525" data-name="Path 525" d="M140.54,102.7v3.305l13.772,7.927v-3.275Z" transform="translate(-140.54 -60.833)" fill="#fff"/>
    <path id="Path_526" data-name="Path 526" d="M140.54,104.66v3.275l13.772,7.927v-3.275Z" transform="translate(-140.54 -56.794)" fill="#fff"/>
    <path id="Path_527" data-name="Path 527" d="M140.54,112.48v3.275l13.772,7.957v-3.275Z" transform="translate(-140.54 -40.681)" fill="#fff"/>
    <path id="Path_528" data-name="Path 528" d="M140.54,114.44v3.275l13.772,7.927v-3.275Z" transform="translate(-140.54 -36.643)" fill="#fff"/>
    <path id="Path_529" data-name="Path 529" d="M200.319,148.911,146.73,118v3.305l53.589,30.88Z" transform="translate(-127.786 -29.307)" fill="#fff"/>
    <path id="Path_530" data-name="Path 530" d="M165.16,128.63v3.305l28.524,16.435V145.1Z" transform="translate(-89.811 -7.404)" fill="#fff"/>
    <path id="Path_531" data-name="Path 531" d="M173.662,131.567,146.73,116.05v3.275l26.932,15.517Z" transform="translate(-127.786 -33.325)" fill="#fff"/>
    <path id="Path_532" data-name="Path 532" d="M156.45,121.66V124.9l55.18,31.86v-3.275Z" transform="translate(-107.758 -21.766)" fill="#fff"/>
    <path id="Path_533" data-name="Path 533" d="M172.11,124.82v3.275l7.253,4.193v-3.275Z" transform="translate(-75.491 -15.255)" fill="#fff"/>
    <path id="Path_534" data-name="Path 534" d="M184.894,130.235l-38.164-22V111.5l38.164,22Z" transform="translate(-127.786 -49.438)" fill="#fff"/>
    <path id="Path_535" data-name="Path 535" d="M169.255,105.587,146.73,92.58v3.275l22.525,13.007Z" transform="translate(-127.786 -81.685)" fill="#fff"/>
    <path id="Path_536" data-name="Path 536" d="M189.134,117.039,155.01,97.36v3.275l34.124,19.679Z" transform="translate(-110.725 -71.836)" fill="#fff"/>
    <path id="Path_537" data-name="Path 537" d="M175.814,111.334,151.82,97.47v3.275l23.994,13.864Z" transform="translate(-117.298 -71.609)" fill="#fff"/>
    <path id="Path_538" data-name="Path 538" d="M182.952,115.445,160.58,102.53V105.8l22.372,12.885Z" transform="translate(-99.248 -61.183)" fill="#fff"/>
    <path id="Path_539" data-name="Path 539" d="M168.81,107.28v3.275l17.353,10.008v-3.275Z" transform="translate(-82.29 -51.396)" fill="#fff"/>
    <path id="Path_540" data-name="Path 540" d="M148.18,97.33V100.6l18.087,10.436v-3.275Z" transform="translate(-124.798 -71.897)" fill="#fff"/>
    <path id="Path_541" data-name="Path 541" d="M207.528,131.569l-52.518-30.3v3.275l52.518,30.3Z" transform="translate(-110.725 -63.779)" fill="#fff"/>
    <path id="Path_542" data-name="Path 542" d="M185.469,124.7,151.13,104.9v3.275l34.339,19.8Z" transform="translate(-118.72 -56.3)" fill="#fff"/>
    <path id="Path_543" data-name="Path 543" d="M190.508,127.6,163.27,111.9v3.275l27.238,15.731Z" transform="translate(-93.705 -41.876)" fill="#fff"/>
    <path id="Path_544" data-name="Path 544" d="M194,135.476,160.12,115.95v3.275L194,138.751Z" transform="translate(-100.196 -33.531)" fill="#fff"/>
    <path id="Path_545" data-name="Path 545" d="M165.16,120.81v3.275l18.455,10.65V131.46Z" transform="translate(-89.811 -23.517)" fill="#fff"/>
    <path id="Path_546" data-name="Path 546" d="M153.371,114.006l-6.641-3.826v3.275l6.641,3.826Z" transform="translate(-127.786 -45.42)" fill="#fff"/>
    <path id="Path_547" data-name="Path 547" d="M152.96,113.78v3.275l34.522,19.893v-3.275Z" transform="translate(-114.949 -38.003)" fill="#fff"/>
    <path id="Path_548" data-name="Path 548" d="M156.614,115.887l-6.794-3.917v3.275l6.794,3.917Z" transform="translate(-121.419 -41.732)" fill="#fff"/>
    <path id="Path_549" data-name="Path 549" d="M187.556,135.68,149.82,113.92v3.275l37.736,21.76Z" transform="translate(-121.419 -37.714)" fill="#fff"/>
  </g>
  <g id="Group_7" data-name="Group 7" transform="translate(556.64 67.33)" opacity="0.4">
    <path id="Path_550" data-name="Path 550" d="M181.88,22v3.275L195.652,33.2V29.927Z" transform="translate(-181.88 -22)" fill="#fff"/>
    <path id="Path_551" data-name="Path 551" d="M181.88,23.95v3.275l13.772,7.957V31.907Z" transform="translate(-181.88 -17.982)" fill="#fff"/>
    <path id="Path_552" data-name="Path 552" d="M181.88,25.91v3.275l13.772,7.927V33.837Z" transform="translate(-181.88 -13.944)" fill="#fff"/>
    <path id="Path_553" data-name="Path 553" d="M273,83.7V80.428l-84.928-49V34.7Z" transform="translate(-169.126 -2.57)" fill="#fff"/>
    <path id="Path_554" data-name="Path 554" d="M181.88,27.87v3.275l13.772,7.927V35.8Z" transform="translate(-181.88 -9.905)" fill="#fff"/>
    <path id="Path_555" data-name="Path 555" d="M181.88,29.82v3.275l13.772,7.957V37.747Z" transform="translate(-181.88 -5.887)" fill="#fff"/>
    <path id="Path_556" data-name="Path 556" d="M273,85.663V82.388l-84.928-49v3.275Z" transform="translate(-169.126 1.469)" fill="#fff"/>
    <path id="Path_557" data-name="Path 557" d="M181.88,35.69v3.275l13.772,7.927V43.617Z" transform="translate(-181.88 6.208)" fill="#fff"/>
    <path id="Path_558" data-name="Path 558" d="M181.88,37.64v3.275l13.772,7.957V45.6Z" transform="translate(-181.88 10.226)" fill="#fff"/>
    <path id="Path_559" data-name="Path 559" d="M181.88,45.47v3.275l13.772,7.927V53.4Z" transform="translate(-181.88 26.359)" fill="#fff"/>
    <path id="Path_560" data-name="Path 560" d="M181.88,47.42v3.275l13.772,7.957V55.347Z" transform="translate(-181.88 30.377)" fill="#fff"/>
    <path id="Path_561" data-name="Path 561" d="M241.628,81.9,188.07,50.99v3.275l53.558,30.911Z" transform="translate(-169.126 37.733)" fill="#fff"/>
    <path id="Path_562" data-name="Path 562" d="M206.5,61.62v3.275L235.024,81.36V78.085Z" transform="translate(-131.151 59.636)" fill="#fff"/>
    <path id="Path_563" data-name="Path 563" d="M214.972,64.577,188.07,49.03V52.3l26.9,15.547Z" transform="translate(-169.126 33.695)" fill="#fff"/>
    <path id="Path_564" data-name="Path 564" d="M197.78,54.64v3.275l55.211,31.829V86.469Z" transform="translate(-149.118 45.254)" fill="#fff"/>
    <path id="Path_565" data-name="Path 565" d="M213.45,57.8v3.305l7.253,4.162V61.993Z" transform="translate(-116.831 51.765)" fill="#fff"/>
    <path id="Path_566" data-name="Path 566" d="M226.234,63.215l-38.164-22v3.275l38.164,22Z" transform="translate(-169.126 17.582)" fill="#fff"/>
    <path id="Path_567" data-name="Path 567" d="M210.6,38.546,188.07,25.57v3.275L210.6,41.821Z" transform="translate(-169.126 -14.644)" fill="#fff"/>
    <path id="Path_568" data-name="Path 568" d="M230.444,50.019,196.35,30.34v3.275l34.094,19.679Z" transform="translate(-152.065 -4.816)" fill="#fff"/>
    <path id="Path_569" data-name="Path 569" d="M217.175,44.293,193.15,30.46v3.275l24.025,13.833Z" transform="translate(-158.658 -4.568)" fill="#fff"/>
    <path id="Path_570" data-name="Path 570" d="M224.292,48.425,201.92,35.51v3.275L224.292,51.7Z" transform="translate(-140.588 5.837)" fill="#fff"/>
    <path id="Path_571" data-name="Path 571" d="M210.15,40.26v3.275L227.5,53.542V50.268Z" transform="translate(-123.63 15.624)" fill="#fff"/>
    <path id="Path_572" data-name="Path 572" d="M189.51,30.31v3.275l18.118,10.436V40.746Z" transform="translate(-166.159 -4.877)" fill="#fff"/>
    <path id="Path_573" data-name="Path 573" d="M248.868,64.528,196.35,34.26v3.275L248.868,67.8Z" transform="translate(-152.065 3.261)" fill="#fff"/>
    <path id="Path_574" data-name="Path 574" d="M226.778,57.681,192.47,37.88v3.275l34.308,19.8Z" transform="translate(-160.06 10.72)" fill="#fff"/>
    <path id="Path_575" data-name="Path 575" d="M231.848,60.611,204.61,44.88v3.275l27.238,15.731Z" transform="translate(-135.045 25.144)" fill="#fff"/>
    <path id="Path_576" data-name="Path 576" d="M235.309,68.466,201.46,48.94v3.275l33.849,19.526Z" transform="translate(-141.536 33.509)" fill="#fff"/>
    <path id="Path_577" data-name="Path 577" d="M206.5,53.8v3.275l18.424,10.62V64.42Z" transform="translate(-131.151 43.523)" fill="#fff"/>
    <path id="Path_578" data-name="Path 578" d="M194.711,47,188.07,43.17v3.275l6.641,3.826Z" transform="translate(-169.126 21.62)" fill="#fff"/>
    <path id="Path_579" data-name="Path 579" d="M194.3,46.76v3.275l34.492,19.924V66.653Z" transform="translate(-156.289 29.017)" fill="#fff"/>
    <path id="Path_580" data-name="Path 580" d="M197.954,48.867,191.16,44.95v3.275l6.794,3.917Z" transform="translate(-162.759 25.288)" fill="#fff"/>
    <path id="Path_581" data-name="Path 581" d="M228.9,68.67,191.16,46.91v3.275L228.9,71.945Z" transform="translate(-162.759 29.326)" fill="#fff"/>
  </g>
  <path id="Path_582" data-name="Path 582" d="M466.891,302.674a18.363,18.363,0,0,0-16.863,2.571c-9.181,6.121-15.3,14.476-11.569,17.6s10.926,6.458,15.608,4.774S481.887,312.345,466.891,302.674Z" transform="translate(-159.037 185.196)" fill="#0f4463"/>
  <path id="Path_583" data-name="Path 583" d="M242.993,165.625l-72.1,40.857-45.968-26.6,72.1-40.827Z" transform="translate(257.395 286.53)" fill="#ed5561"/>
  <path id="Path_584" data-name="Path 584" d="M144.55,188.277v1.591l72.1-41.286V147.42Z" transform="translate(297.842 303.756)" fill="#f0cec9"/>
  <path id="Path_585" data-name="Path 585" d="M247.583,165.3l-72.1,40.857-45.938-26.6,72.074-40.827Z" transform="translate(266.914 285.871)" fill="#fffbf0"/>
  <path id="Path_586" data-name="Path 586" d="M175.478,178.676v1.591l-45.938-26.6V152.08Z" transform="translate(266.914 313.357)" fill="#f5ddd8"/>
  <path id="Path_587" data-name="Path 587" d="M153.754,140.16l27.759,16.006-1.194.7L152.53,140.864Z" transform="translate(314.285 288.797)" fill="#dfbab8"/>
  <path id="Path_588" data-name="Path 588" d="M152.814,140.7l27.758,16.006-1.224.673L151.59,141.373Z" transform="translate(312.348 289.909)" fill="#dfbab8"/>
  <path id="Path_589" data-name="Path 589" d="M150.624,141.94l38.225,22.066-1.224.673L149.4,142.613Z" transform="translate(307.835 292.464)" fill="#dfbab8"/>
  <path id="Path_590" data-name="Path 590" d="M149.754,142.43,187.98,164.5l-1.194.673L148.53,143.1Z" transform="translate(306.043 293.474)" fill="#dfbab8"/>
  <path id="Path_591" data-name="Path 591" d="M148.894,142.92l38.225,22.066-1.224.673L147.67,143.593Z" transform="translate(304.271 294.483)" fill="#dfbab8"/>
  <path id="Path_592" data-name="Path 592" d="M148,143.41l38.225,22.066-1.194.673L146.81,144.083Z" transform="translate(302.499 295.493)" fill="#dfbab8"/>
  <path id="Path_593" data-name="Path 593" d="M147.164,143.9l38.225,22.066-1.224.7L145.94,144.6Z" transform="translate(300.706 296.503)" fill="#dfbab8"/>
  <path id="Path_594" data-name="Path 594" d="M146.274,144.39l38.256,22.066-1.224.7L145.08,145.094Z" transform="translate(298.934 297.512)" fill="#dfbab8"/>
  <path id="Path_595" data-name="Path 595" d="M145.434,144.88l38.225,22.066-1.224.7L144.21,145.584Z" transform="translate(297.141 298.522)" fill="#dfbab8"/>
  <path id="Path_596" data-name="Path 596" d="M144.544,145.37,182.8,167.436l-1.224.7L143.35,146.074Z" transform="translate(295.369 299.532)" fill="#dfbab8"/>
  <path id="Path_597" data-name="Path 597" d="M143.7,145.86l38.225,22.066-1.224.7L142.48,146.564Z" transform="translate(293.577 300.541)" fill="#dfbab8"/>
  <path id="Path_598" data-name="Path 598" d="M142.814,146.35l38.256,22.066-1.224.7L141.62,147.054Z" transform="translate(291.805 301.551)" fill="#dfbab8"/>
  <path id="Path_599" data-name="Path 599" d="M141.974,146.84l38.225,22.1-1.224.673L140.75,147.544Z" transform="translate(290.012 302.56)" fill="#dfbab8"/>
  <path id="Path_600" data-name="Path 600" d="M141.114,147.34l38.225,22.035-1.224.7L139.89,148.013Z" transform="translate(288.24 303.591)" fill="#dfbab8"/>
  <path id="Path_601" data-name="Path 601" d="M140.244,147.83,178.47,169.9l-1.224.673L139.02,148.5Z" transform="translate(286.448 304.6)" fill="#dfbab8"/>
  <path id="Path_602" data-name="Path 602" d="M139.384,148.32l38.225,22.066-1.224.673L138.16,148.993Z" transform="translate(284.676 305.61)" fill="#dfbab8"/>
  <path id="Path_603" data-name="Path 603" d="M138.514,148.81l38.225,22.066-1.194.673L137.29,149.483Z" transform="translate(282.883 306.62)" fill="#dfbab8"/>
  <path id="Path_604" data-name="Path 604" d="M480.575,298.1h-6.733v7.284h6.733a4.56,4.56,0,0,1,4.56,4.56v11.813a4.56,4.56,0,0,1-4.56,4.529H470.69v7.284h9.885a11.844,11.844,0,0,0,11.844-11.813V310.036A11.875,11.875,0,0,0,480.575,298.1Z" transform="translate(-90.334 177.835)" fill="#a7bcce"/>
  <path id="Path_605" data-name="Path 605" d="M501.545,296.79v40.949c0,6.366-9.457,11.507-21.117,11.507s-21.148-5.142-21.148-11.507V296.79Z" transform="translate(-113.844 175.136)" fill="#bbcee1"/>
  <path id="Path_606" data-name="Path 606" d="M459.28,304.6c0,6.335,9.457,11.508,21.148,11.508s21.117-5.172,21.117-11.508S492.088,293,480.428,293,459.28,298.264,459.28,304.6Z" transform="translate(-113.844 167.326)" fill="#fff"/>
  <path id="Path_607" data-name="Path 607" d="M460.66,302.777c0,4.989,7.559,9,16.924,9s16.924-4.009,16.924-9-7.59-8.967-16.924-8.967S460.66,297.819,460.66,302.777Z" transform="translate(-111 168.995)" fill="#a7bcce"/>
  <path id="Path_608" data-name="Path 608" d="M476.966,295.73c-7.406,0-13.68,2.54-16.006,6.121,2.326,3.52,8.6,6.121,16.006,6.121s13.68-2.54,15.976-6.121C490.647,298.27,484.373,295.73,476.966,295.73Z" transform="translate(-110.382 172.952)" fill="#9d4d36"/>
  <path id="Path_609" data-name="Path 609" d="M468.8,303.361V344.31a22.617,22.617,0,0,0,9.947-4.591V298.77A22.62,22.62,0,0,1,468.8,303.361Z" transform="translate(-94.228 179.215)" fill="#a7bcce"/>
</svg>
