<svg xmlns="http://www.w3.org/2000/svg" xmlns:xlink="http://www.w3.org/1999/xlink" width="499.572" height="438.243" viewBox="0 0 499.572 438.243">
  <defs>
    <linearGradient id="linear-gradient" x1="-0.445" y1="-0.429" x2="1" y2="0.87" gradientUnits="objectBoundingBox">
      <stop offset="0" stop-color="#c66fff" stop-opacity="0.329"/>
      <stop offset="1" stop-color="#39015e" stop-opacity="0.102"/>
    </linearGradient>
    <linearGradient id="linear-gradient-2" x1="0.5" x2="0.5" y2="1" gradientUnits="objectBoundingBox">
      <stop offset="0" stop-color="#c66fff" stop-opacity="0.325"/>
      <stop offset="1" stop-color="#3a0060" stop-opacity="0"/>
    </linearGradient>
  </defs>
  <g id="Intro-Images" transform="translate(0 0.008)">
    <path id="Path_610" data-name="Path 610" d="M214.226,108.3c17.438,15.064,56.068,40.792,105.851,28.379,13.1-7.109-1.215-25.3-6.685-31.354-13.56-15.009-36.335-32.234-55.466-42.686C218.6,41.11,170.537,70.559,214.226,108.3Z" transform="translate(-6.279 -51.182)" fill-rule="evenodd" fill="url(#linear-gradient)"/>
    <path id="Path_611" data-name="Path 611" d="M486.88,475.181s47.611-68.9-7.933-128.581c0,0,49.872-67.455,18.14-143.979S404.15,132.57,355.414,148.136s-112.2,7.8-160.938-53.182-105.405-48-126.943-19.51-27.2,86.909-3.343,145.283,10.206,96-10.2,124.536S31.265,453.276,80,475.181Z" transform="translate(-24.167 -51.61)" fill-rule="evenodd" fill="url(#linear-gradient-2)"/>
    <path id="Path_612" data-name="Path 612" d="M28.951,431.92h493.31a3.176,3.176,0,0,1,3.131,3.209h0a3.187,3.187,0,0,1-3.131,3.22H511.653a1.772,1.772,0,0,0-1.749,1.783h0a1.772,1.772,0,0,0,1.749,1.783h3.878a2.229,2.229,0,0,1,2.228,2.229h0a2.228,2.228,0,0,1-2.228,2.228H36.049a2.228,2.228,0,0,1-2.228-2.228h0a2.228,2.228,0,0,1,2.228-2.229H39.1a1.772,1.772,0,0,0,1.749-1.783h0a1.772,1.772,0,0,0-1.749-1.783H28.951a3.187,3.187,0,0,1-3.131-3.22h0A3.176,3.176,0,0,1,28.951,431.92ZM30.589,446.4a2.128,2.128,0,0,0,2.117-2.139v-.178a2.117,2.117,0,0,0-2.095-2.139h0a2.128,2.128,0,0,0-2.095,2.139v.178a2.128,2.128,0,0,0,2.095,2.139Z" transform="translate(-25.82 -8.17)" fill="#06152d" fill-rule="evenodd"/>
    <path id="Path_613" data-name="Path 613" d="M369.525,413.476s10.117,8.858,13.783,9.56,11.71,1.4,13.371,2.384,3.343,5.137,3.488,5.905.624,3.521-1.839,3.521h-45.26c-1.894,0-2.228-1.059-2.228-2.607a6.173,6.173,0,0,1,1.114-3.086v-8.646a3.276,3.276,0,0,1,3.231-3.588c3.822-.245,7.989,1.939,10.463-2.072C366.718,413.041,367.2,411.693,369.525,413.476Z" transform="translate(11.304 -10.373)" fill="#01142e" fill-rule="evenodd"/>
    <path id="Path_614" data-name="Path 614" d="M368.077,413.476s9.7,8.49,13.549,9.5a7.309,7.309,0,0,1-4.88,2.228c-1.393-.111-11.855-4.869-12.8-6.139s0-3.9,0-3.9h0c.067-.1.134-.189.2-.3C365.269,413.041,365.748,411.693,368.077,413.476Z" transform="translate(12.752 -10.373)" fill="#01142e" fill-rule="evenodd"/>
    <path id="Path_615" data-name="Path 615" d="M399.364,427.46a16.052,16.052,0,0,1,.847,2.229c.189.78.624,3.521-1.839,3.521h-45.3c-1.894,0-2.228-1.059-2.228-2.607a6.173,6.173,0,0,1,1.114-3.086Z" transform="translate(11.304 -8.68)" fill="#002049" fill-rule="evenodd"/>
    <path id="Path_616" data-name="Path 616" d="M394.511,194.8c-1.671-9.437-13.571-39.154-22.83-55.221,0,0-3.343,4.713-8.49,3.465l8.2,49.026C375.9,194.388,392.773,188.728,394.511,194.8Z" transform="translate(12.714 -41.561)" fill="#d1d8e4" fill-rule="evenodd"/>
    <path id="Path_617" data-name="Path 617" d="M367.47,170.529l3.432,20.524c2.362,1.226,8.1.267,13.282,0L372.729,148.2l-3.554,4.579Z" transform="translate(13.203 -40.577)" fill="#949dae" fill-rule="evenodd"/>
    <path id="Path_618" data-name="Path 618" d="M374.81,226.73,377.84,233l.813,9.627a72.12,72.12,0,0,1,3.922,6.9c.579,1.582,2.607,14.574,2.83,16.958S375.077,374.91,373.629,394a289.886,289.886,0,0,0,.4,41.627c.189,1.85-8.78,5.036-12.067,5.293a37.339,37.339,0,0,1-9.092-1.114h-.056c-1.248-.323-1.337-1.905-1.337-1.905l-.869-33.56h0c.1-5,.1-18.942-.111-24.758-.212-6.106-3.1-112.135-3.1-112.135l8.423-37.883Z" transform="translate(10.911 -31.607)" fill="#949dae" fill-rule="evenodd"/>
    <path id="Path_619" data-name="Path 619" d="M373.034,406.6c.234,4.646.49,7.8.568,8.479.189,1.85-8.78,5.036-12.067,5.293a37.341,37.341,0,0,1-9.092-1.114h-.056c-1.248-.323-1.337-1.905-1.337-1.905v-.624Z" transform="translate(11.328 -11.062)" fill="#7a8296" fill-rule="evenodd"/>
    <path id="Path_620" data-name="Path 620" d="M377.854,232.641l.791,9.326a72.114,72.114,0,0,1,3.922,6.9c.513,1.393,2.128,11.543,2.674,15.6l-18.084-6.6s-2.618-1.582-4.724,4.1c-1.46,3.933-9.036,38.92-13.538,59.99-.769-27.777-1.515-55.232-1.515-55.232l6.162-27.7,21.616-6.5S376.194,232.575,377.854,232.641Z" transform="translate(10.908 -30.944)" fill="#7a8296" fill-rule="evenodd"/>
    <path id="Path_621" data-name="Path 621" d="M325.534,227.17l-1.382,4.535s-4.39,2.919-4.669,4.379-1.549,4.646-1.961,6.774,1.827,7.242,1.114,8.836-4.457,79.578-4.457,88.837-.267,8.858-.691,15.989h0L310.6,436.744a2.953,2.953,0,0,0,2.563,3.343c3.008.691,14.63.178,16.713-.267a11.62,11.62,0,0,0,3.1-1.493c1.382-1.192.969-21.07,1.248-24.123s6.351-64.547,8.011-74.887,15.755-67.065,18.24-77.137,8.29-28.9,8.29-28.9Z" transform="translate(6.705 -31.557)" fill="#949dae" fill-rule="evenodd"/>
    <path id="Path_622" data-name="Path 622" d="M310.741,414.551l-.078,2.128a2.953,2.953,0,0,0,2.563,3.343c3.008.691,14.63.178,16.713-.267a11.624,11.624,0,0,0,3.1-1.493c.858-.735,1.025-8.524,1.114-15.131Z" transform="translate(6.711 -11.459)" fill="#7a8296" fill-rule="evenodd"/>
    <path id="Path_623" data-name="Path 623" d="M316.982,241.586l-.1.49c-.412,2.117,1.827,7.242,1.114,8.836-.256.591-.947,12.056-1.716,26.585,13.794-8.836,33.427-21.315,36.491-22.663,4.78-2.095,5.46.535,5.46.535l1.883,5.025c1.805-7.1,4.947-17.683,6.685-23.555-3.766-.579-9.315-1.582-11.064-2.663S333.027,237.82,316.982,241.586Z" transform="translate(7.356 -30.774)" fill="#7a8296" fill-rule="evenodd"/>
    <path id="Path_624" data-name="Path 624" d="M380.877,239.994a115.733,115.733,0,0,1-36.268,2.663c-19.488-1.827,14.429-13.46,23.688-10.24S380.877,239.994,380.877,239.994Z" transform="translate(9.914 -31.021)" fill="#122344" fill-rule="evenodd"/>
    <path id="Path_625" data-name="Path 625" d="M337.091,134.455,314.35,142.11s6.128,9.181,3.176,35.477c0,0,6.429,30.975,6.429,35.109s-3.476,22.006-3.476,24.669c0,2.474,28.346,19.51,56.513,9.6,8.468-2.975,6.3-7.4,5.772-9.861-3.822-17.772-3.343-39.232-4.156-44.368-.891-5.571,4.457-15.6,4.457-15.6l-5.571-36.335-15.744-6.5Z" transform="translate(7.136 -42.163)" fill="#122344" fill-rule="evenodd"/>
    <path id="Path_626" data-name="Path 626" d="M326.67,95.827l9.315,67.143-4.758,13.738-10.8-15.142,1.616-65.739,2.73-1.437Z" transform="translate(36.599 10.782)" fill="#cc3129" fill-rule="evenodd"/>
    <path id="Path_627" data-name="Path 627" d="M353.852,143.223l-1.114,5.259h-4.624L343.49,141.9l4.769-5.047s3.777,1.95,3.989,2.763A37.081,37.081,0,0,0,353.852,143.223Z" transform="translate(10.464 -41.873)" fill="#9d2529" fill-rule="evenodd"/>
    <path id="Path_628" data-name="Path 628" d="M310.77,68.06h19.755V89.966h-7.844L310.77,85.33Z" transform="translate(35.496 7.775)" fill="#d77f68" fill-rule="evenodd"/>
    <path id="Path_629" data-name="Path 629" d="M310.978,80.87v.981L325.24,88.5l-6.306,8.357L308.95,83.054Z" transform="translate(35.288 9.238)" fill="#06152d" fill-rule="evenodd"/>
    <path id="Path_630" data-name="Path 630" d="M323.57,88.506l5.493-6.474V80.84l2.786,2.039-2.641,13.827Z" transform="translate(36.958 9.234)" fill="#06152d" fill-rule="evenodd"/>
    <path id="Path_631" data-name="Path 631" d="M364.706,103.751l.446.078h0a6.05,6.05,0,1,1-5.047,1.181c-.167,1.783.1,4,2.373,4.234v-3.488a2.084,2.084,0,0,1,2.228-2.006Z" transform="translate(12.101 -45.654)" fill="#d77f68" fill-rule="evenodd"/>
    <path id="Path_632" data-name="Path 632" d="M328.8,103.751a2.933,2.933,0,0,0-.435.067h0a6.05,6.05,0,1,0,5.036,1.248c.145,1.794-.156,4-2.429,4.2l.089-3.488a2.084,2.084,0,0,0-2.262-2.028Z" transform="translate(8.183 -45.654)" fill="#d77f68" fill-rule="evenodd"/>
    <path id="Path_633" data-name="Path 633" d="M348.221,137.081c-11.276,0-20.691-13.917-20.691-24.9V97.571A20.758,20.758,0,0,1,348.221,76.88h0a20.758,20.758,0,0,1,20.691,20.691v14.3C368.912,123.911,360.7,137.081,348.221,137.081Z" transform="translate(8.641 -48.723)" fill="#e6ad83" fill-rule="evenodd"/>
    <path id="Path_634" data-name="Path 634" d="M340.663,98.8a.869.869,0,0,1,.435,1.114.88.88,0,0,1-1.114.435,5.627,5.627,0,0,0-5.114.323.869.869,0,1,1-.925-1.471A7.5,7.5,0,0,1,340.663,98.8Z" transform="translate(9.325 -46.288)" fill="#06152d" fill-rule="evenodd"/>
    <path id="Path_635" data-name="Path 635" d="M359.042,99.179a.869.869,0,0,1-.847,1.515,5.649,5.649,0,0,0-5.125-.089.869.869,0,0,1-1.17-.368.88.88,0,0,1,.368-1.181,7.487,7.487,0,0,1,6.774.123Z" transform="translate(11.414 -46.275)" fill="#06152d" fill-rule="evenodd"/>
    <path id="Path_636" data-name="Path 636" d="M346.817,109.9a18.945,18.945,0,0,1,1,3.265c-.078.446-2.373.858-2.975.267-.4-.379.1-2.095.535-3.242C345.97,108.619,346.294,108.5,346.817,109.9Z" transform="translate(10.602 -45.063)" fill="#ebbf9e" fill-rule="evenodd"/>
    <path id="Path_637" data-name="Path 637" d="M350.891,117.312a4.345,4.345,0,1,1-8.691,0,.8.8,0,0,1,.8-.8h7.086A.8.8,0,0,1,350.891,117.312Z" transform="translate(10.317 -44.196)" fill="#06152d" fill-rule="evenodd"/>
    <path id="Path_638" data-name="Path 638" d="M343.31,116.51h6.217v.735a.7.7,0,0,1-.7.691H344a.691.691,0,0,1-.691-.691Z" transform="translate(10.444 -44.196)" fill="#fff" fill-rule="evenodd"/>
    <path id="Path_639" data-name="Path 639" d="M349.576,120.059a4.357,4.357,0,0,1-6.306,0,4.334,4.334,0,0,1,6.307,0Z" transform="translate(10.439 -43.946)" fill="#d26070" fill-rule="evenodd"/>
    <path id="Path_640" data-name="Path 640" d="M337.256,109.672a2.5,2.5,0,1,0-2.5-2.5A2.5,2.5,0,0,0,337.256,109.672Z" transform="translate(9.467 -45.547)" fill="#06152d" fill-rule="evenodd"/>
    <path id="Path_641" data-name="Path 641" d="M355.435,109.672a2.5,2.5,0,1,0-2.485-2.5A2.5,2.5,0,0,0,355.435,109.672Z" transform="translate(11.545 -45.547)" fill="#06152d" fill-rule="evenodd"/>
    <path id="Path_642" data-name="Path 642" d="M358.2,254.517c0,5.047-2.808,6.173-2.808,6.173-3.22,2.518-39.666,13.872-40.647,13.315s-1.471-3.51-1.471-3.51c2.774-19.1,3.176-36.424,7.22-55.154a1.95,1.95,0,0,1,.423-3.086c0-1.259-3.577-33.661-3.577-33.661,3.855-22.452-2.864-36.558-2.864-36.558s16.713-7.02,17.582-7.086a2.54,2.54,0,0,1,1.638.613s11.588,41.159,12.167,44.012.5,20.368.78,23.4S358.2,254.517,358.2,254.517Z" transform="translate(7.012 -42.09)" fill="#d1d8e4" fill-rule="evenodd"/>
    <path id="Path_643" data-name="Path 643" d="M337.722,154.65c2.942,10.507,5.905,21.248,6.184,22.63.39,1.928.479,10.819.591,17.2h-.691L330.68,172.645l1.259-17.449,3.577-.524Z" transform="translate(9.001 -39.84)" fill="#a9b0c2" fill-rule="evenodd"/>
    <path id="Path_644" data-name="Path 644" d="M326.408,136.532c2.228-.9,3.989-1.56,4.234-1.582a2.541,2.541,0,0,1,1.638.613s5.215,18.5,8.825,31.532L325.65,153.134Z" transform="translate(8.426 -42.09)" fill="#949dae" fill-rule="evenodd"/>
    <path id="Path_645" data-name="Path 645" d="M293.61,124.021l3.1-18.541,12.145,37.037-13.293,3.231Z" transform="translate(33.536 12.049)" fill="#949dae" fill-rule="evenodd"/>
    <path id="Path_646" data-name="Path 646" d="M316.93,227.5c.78-6.284,1.749-12.6,3.142-19.087a1.95,1.95,0,0,1,.423-3.086c0-.368-.3-3.343-.724-7.376l26.418-2.362v.468c.1,1.114,1.76,8.713,3.788,17.694Z" transform="translate(7.43 -35.164)" fill="#949dae" fill-rule="evenodd"/>
    <path id="Path_647" data-name="Path 647" d="M357.6,134.608a4.457,4.457,0,0,1,1.114-.067c.423.078,13.27,5.437,13.582,5.571s.6.279,1.114,3.153,4.735,30.084,4.869,31.042a60.784,60.784,0,0,1,.724,7.744c.056,7.889-3.476,20.134-3.476,25.148,0,6.919,1.727,14.607,2.3,20.858a1.859,1.859,0,0,0,.056.557c.557,7.109,9.905,25.059,9.27,36.881-.1,1.816-3.788,3.922-4.769,4.691s-1.471.78-3.577-.134-12.747-10.931-12.747-10.931a9.4,9.4,0,0,1-1.972-6.173c.145-3.788.423-58.731.423-61.538s1.538-11.142,1.749-12.825-7.61-43.533-7.61-43.533Z" transform="translate(12.076 -42.138)" fill="#d1d8e4" fill-rule="evenodd"/>
    <path id="Path_648" data-name="Path 648" d="M364.038,194.512v-5.326c0-2.8,1.538-11.142,1.749-12.825.111-.825-1.76-11.421-3.677-21.961h1.3l7.677,17.761L365.1,194.523Z" transform="translate(12.591 -39.868)" fill="#a9b0c2" fill-rule="evenodd"/>
    <path id="Path_649" data-name="Path 649" d="M357.6,134.608a4.457,4.457,0,0,1,1.114-.067c.156,0,1.994.769,4.256,1.7l4.635,11.365L364.263,166c-2.284-12.88-5.683-30.953-5.683-30.953Z" transform="translate(12.076 -42.138)" fill="#949dae" fill-rule="evenodd"/>
    <path id="Path_650" data-name="Path 650" d="M375.965,192.77a50.76,50.76,0,0,0-1.114,7.8,66.916,66.916,0,0,0,.591,8.056l-11.722-1.114c0-5.059.056-9.805.067-13.649Z" transform="translate(12.775 -35.486)" fill="#949dae" fill-rule="evenodd"/>
    <path id="Path_651" data-name="Path 651" d="M328.41,417.921s-.379-5.281-3.51-5.281h-6.128c-2.072,0-4.089,3.242-4.669,5.571a3.621,3.621,0,0,0-2.462,2.6c-.435,2.039-1.393,9.694-1.538,10.451s-.68,3.554,2.451,3.554h22.362c1.983,0,1.738-1.46,1.738-2.3a13.37,13.37,0,0,0-1.493-5.571C334.1,425.387,328.41,417.921,328.41,417.921Z" transform="translate(6.636 -10.372)" fill="#01142e" fill-rule="evenodd"/>
    <path id="Path_652" data-name="Path 652" d="M327.987,417.921s-.379-5.281-3.51-5.281h-6.128c-2.072,0-4.089,3.242-4.669,5.571l2.507,5.326a4.7,4.7,0,0,0,3.343,1.192h7.086s1.861-.357,1.76-2.084S327.987,417.921,327.987,417.921Z" transform="translate(7.059 -10.372)" fill="#01142e" fill-rule="evenodd"/>
    <path id="Path_653" data-name="Path 653" d="M310.214,428.71c-.056.368-.089.635-.111.747-.145.747-.68,3.554,2.451,3.554h22.362c1.983,0,1.738-1.46,1.738-2.3a12.929,12.929,0,0,0-.245-2.006Z" transform="translate(6.636 -8.537)" fill="#002049" fill-rule="evenodd"/>
    <path id="Path_654" data-name="Path 654" d="M336.059,197.447l41.438-5.5,7.566,13.649-55.978,13.716s-13.248,4.1-16.825-6.106-8.836-53.093-8.836-53.093A18.808,18.808,0,0,1,315.6,141.29s6.117,3.476,7.8,12.256,7.153,42.262,7.153,42.262a3.744,3.744,0,0,1,5.5,1.638Z" transform="translate(5.883 -41.366)" fill="#d1d8e4" fill-rule="evenodd"/>
    <path id="Path_655" data-name="Path 655" d="M333.241,191.865l12.847-1.7,31.945,2.228,4.212,7.61-34.374,8.424L328.06,192.478l4.557-1.526A6.4,6.4,0,0,1,333.241,191.865Z" transform="translate(8.702 -35.784)" fill="#949dae" fill-rule="evenodd"/>
    <path id="Path_656" data-name="Path 656" d="M365.351,110.35l-1.995-8.089s-6.44-4.724-4.156-11.3S361.941,85,361.941,85s8.579,3.866,4.758,21.293Z" transform="translate(12.203 -47.797)" fill="#06152d" fill-rule="evenodd"/>
    <path id="Path_657" data-name="Path 657" d="M327.769,110.35l1.994-8.089s6.44-4.724,4.156-11.3S331.178,85,331.178,85s-8.579,3.866-4.758,21.293Z" transform="translate(8.402 -47.797)" fill="#06152d" fill-rule="evenodd"/>
    <path id="Path_658" data-name="Path 658" d="M328.3,101.441s-7.153,1.471-7.476-3.8,4.524-9.56,4.524-9.56-1.471-9.326,1.114-13.861,8.089-.368,8.089-.368.847-5.148,5.894-3.922c0,0,.947-9.449,11.354-5.638s9.772,9.805,9.772,9.805,6.206-1.961,6.418,5.883c0,0,4.624.981,6.83,7.978s-2.808,15.2-3.989,16.056-4.735-2.228-5.783-5.638c0,0-1.794-.435-1.471-3.343,0,0-8.836,5.46-12.256-1.036,0,0-3.788,2.451-5.471-.981,0,0-9.248,9.928-14.4,2.942S328.3,101.441,328.3,101.441Z" transform="translate(7.873 -50.264)" fill="#06152d" fill-rule="evenodd"/>
    <path id="Path_659" data-name="Path 659" d="M357.936,188.025l-14.763.189s-9.827-1.894-11.254-1.894a16.947,16.947,0,0,0-4.579,1.493l.8,5.137s7.722,3.788,9.5,4.68a6.552,6.552,0,0,0,6.05.256l14.084,1.95Z" transform="translate(8.62 -36.223)" fill="#ebbf9e" fill-rule="evenodd"/>
    <path id="Path_660" data-name="Path 660" d="M329.757,136.24l-1.861.022-5.716,10.763,7.432,1.025Z" transform="translate(36.799 15.562)" fill="#d7766d" fill-rule="evenodd"/>
    <path id="Path_661" data-name="Path 661" d="M355.007,187.519l-1.337,13.6a1.616,1.616,0,0,0,1.226,1.616c1.326.412,32.658-.29,32.658-.29s8.268-1.816,8.268-10.362a14.111,14.111,0,0,0-.223-2.351,8.011,8.011,0,0,0-7.866-5.816l-14.273,1.794-17.159,1S355.152,186.761,355.007,187.519Z" transform="translate(11.627 -36.497)" fill="#d1d8e4" fill-rule="evenodd"/>
    <path id="Path_662" data-name="Path 662" d="M139.748,414.236s-10.173,8.969-13.872,9.683-11.777,1.426-13.5,2.407-3.343,5.181-3.488,5.972-.635,3.566,1.838,3.566h45.538c1.916,0,2.3-1.114,2.3-2.652a6.206,6.206,0,0,0-1.114-3.109v-8.769a3.343,3.343,0,0,0-3.231-3.621c-3.855-.256-8.056,1.961-10.529-2.084-1.114-1.816-1.582-3.187-3.922-1.4Z" transform="translate(-16.348 -10.286)" fill="#111" fill-rule="evenodd"/>
    <path id="Path_663" data-name="Path 663" d="M137.968,414.234s-9.761,8.591-13.638,9.638a7.264,7.264,0,0,0,4.914,2.228c1.4-.111,11.933-4.925,12.88-6.228s0-3.922,0-3.922h0c-.067-.1-.145-.2-.2-.3-1.114-1.816-1.582-3.187-3.922-1.4Z" transform="translate(-14.568 -10.284)" fill="#111" fill-rule="evenodd"/>
    <path id="Path_664" data-name="Path 664" d="M109.742,428.4a15.42,15.42,0,0,0-.836,2.228c-.2.791-.635,3.565,1.838,3.565h45.538c1.916,0,2.3-1.114,2.3-2.652a6.206,6.206,0,0,0-1.114-3.109Z" transform="translate(-16.348 -8.572)" fill="#1c1c1c" fill-rule="evenodd"/>
    <path id="Path_665" data-name="Path 665" d="M140.113,137.22s-10.652,2.953-12.256,8.256c-5.07,16.9-5.995,23.833-8,33.716-.947,4.669-10.919-12.769-15.454-22.284-.067-.134-8.691,2.975-16.892,3.922-3.721.435,14.485,44.48,24.513,51.967,9.738,7.32,21.081-1.4,31.12-36.68,0,0,6.351-22.374-3.031-38.864Z" transform="translate(-18.83 -41.831)" fill="#303030" fill-rule="evenodd"/>
    <path id="Path_666" data-name="Path 666" d="M105.566,157.24l-1.114-2.34c-.067-.134-8.691,2.975-16.892,3.922-3.721.435,14.485,44.48,24.513,51.967,9.46,7.109,20.446-.936,30.284-33.75-1.5-4.758-2.574-8-2.574-8s-6.072,19.833-10.786,28.6-13.761,8.49-19.833.691-20.234-33.193-14.83-34.285a17.984,17.984,0,0,0,11.231-6.808Z" transform="translate(-18.824 -39.812)" fill="#232323" fill-rule="evenodd"/>
    <path id="Path_667" data-name="Path 667" d="M133.127,225.31l-3.086,6.351-.813,9.738a71.563,71.563,0,0,0-3.978,6.975c-.579,1.616,1.682,14.206,1.46,16.624s6.139,110.241,7.6,129.528a295.263,295.263,0,0,1-.412,42.14c-.2,1.883,8.914,5.1,12.189,5.382a37.25,37.25,0,0,0,9.192-1.114h.078c1.281-.334,1.359-1.939,1.359-1.939l.891-33.95h0c-.111-5.07-.111-19.187.1-25.059.2-6.162,3.131-113.439,3.131-113.439l-8.513-38.363Z" transform="translate(-14.474 -31.769)" fill="#1c1c1c" fill-rule="evenodd"/>
    <path id="Path_668" data-name="Path 668" d="M143.75,439.218h.234a37.247,37.247,0,0,0,9.192-1.114h.078c1.281-.334,1.359-1.939,1.359-1.939l.891-33.95h0c-.111-5.07-.111-19.187.1-25.059.145-4.713,1.905-68.513,2.73-98.308L145.99,249.6c-2.752,5.738,2.886,15.075,2.3,29.393-1.426,35.12.535,97.394-.3,136.648-.256,11.644-.947,18.529-4.234,23.577Z" transform="translate(-12.35 -28.995)" fill="#111" fill-rule="evenodd"/>
    <path id="Path_669" data-name="Path 669" d="M185.339,225.75l1.4,4.579s4.457,2.964,4.713,4.457,1.56,4.724,1.994,6.864,5.148,10.028,5.839,11.666-3.6,24.9-3.6,34.285c0,6.93,2.139,68.669,1.76,69.082l2.93,81.182a2.986,2.986,0,0,1-2.574,3.343c-3.053.713-14.808.2-16.925-.256a12.68,12.68,0,0,1-3.131-1.5c-1.4-1.192-.969-21.337-1.248-24.413s-6.429-65.3-8.112-75.767c-.936-5.917-5.905-26.741-10.5-45.683-3.543-14.574-9.56-29.438-10.652-33.895-2.529-10.173-5.694-27.733-5.694-27.733Z" transform="translate(-12.601 -31.719)" fill="#1c1c1c" fill-rule="evenodd"/>
    <path id="Path_670" data-name="Path 670" d="M127.69,238.712a117.26,117.26,0,0,0,36.769,2.707c19.7-1.838-14.607-13.616-23.967-10.351s-12.769,7.644-12.769,7.644Z" transform="translate(-14.184 -31.176)" fill="#ff9f21" fill-rule="evenodd"/>
    <path id="Path_671" data-name="Path 671" d="M176.534,131.948l23.02,7.8s-6.2,9.3-3.209,35.889c0,0-6.507,31.343-6.507,35.532s3.521,22.284,3.521,24.947-36.769,20.39-67.243,5.426a4.234,4.234,0,0,1-.735-2.518c-.156-1.939,20.981-34.819,21.872-40.5s-17.181-23.4-17.181-23.4l5.683-36.769,15.933-6.585Z" transform="translate(-14.448 -42.453)" fill="#fff" fill-rule="evenodd"/>
    <path id="Path_672" data-name="Path 672" d="M126.138,80.16h.178v1.07l5.56,6.552,14.429-6.73v-.758h.223l1.838,1.961L138.529,97.04l-6.652-9.259-8.134,7.755-.223-13.46Z" transform="translate(14.108 9.157)" fill="#d0d9e6" fill-rule="evenodd"/>
    <path id="Path_673" data-name="Path 673" d="M129.5,92.138l-9.995,50.541,3.9,32.78,14.273-18.429-3.51-64.892-2.752-1.448Z" transform="translate(13.65 10.359)" fill="#ff3324" fill-rule="evenodd"/>
    <path id="Path_674" data-name="Path 674" d="M151.462,139.2l2.6,7.209,5.437.078,3-7.008-4.858-5.1c-3.621,1.861-3.677,3.265-6.2,4.825Z" transform="translate(-11.472 -42.155)" fill="#ba2b27" fill-rule="evenodd"/>
    <path id="Path_675" data-name="Path 675" d="M149.477,59.21,123.17,61.628l.791,22.429,9.972,4.178L143.95,83.01Z" transform="translate(14.068 6.764)" fill="#f2856e" fill-rule="evenodd"/>
    <path id="Path_676" data-name="Path 676" d="M131.605,86.48l-7.5-10.373-1.526,4.357,1.092,15,7.933-8.981,6.4,8.468L148.1,80.976l-2.451-6.4Z" transform="translate(14.001 8.519)" fill="#fff" fill-rule="evenodd"/>
    <path id="Path_677" data-name="Path 677" d="M196.475,239.27c.936,10.24-6.072,14.953-6.072,14.953s-4.334-16.713-2.975-21.17,3.109-3.8,3.109-3.8Z" transform="translate(-7.391 -31.323)" fill="#fcb187" fill-rule="evenodd"/>
    <path id="Path_678" data-name="Path 678" d="M189.426,232l-1.226,3.777s2.574,6.752,5.805,8.635a21.658,21.658,0,0,0,3.5,1.894l3.109-6.607Z" transform="translate(-7.273 -31.005)" fill="#d0d9e6" fill-rule="evenodd"/>
    <path id="Path_679" data-name="Path 679" d="M192.529,138.89s8.412,1.838,11.142,9.883,16.546,54.753,16.546,54.753c-4.39,21.337-6.752,29.215-15.677,49.605-3.744,7.008-14.908-9.638-15.933-10.529h0l11.042-31.934-10.3-35.889s-6.151-19.421,3.209-35.889Z" transform="translate(-7.368 -41.64)" fill="#303030" fill-rule="evenodd"/>
    <path id="Path_680" data-name="Path 680" d="M196.583,273.177c.969-.557-4.1-25.694-3.008-29.159a50.141,50.141,0,0,1,1.916-8.212l-4.747-21.995a1.961,1.961,0,0,0-.4-3.109c0-1.27,3.588-34.051,3.588-34.051-3.9-22.708,2.908-36.981,2.908-36.981-7.644-3.209-14.095-6.786-22.284-7.621-3.577,8.435-22.942,57.806-23.755,66.575-.178,1.961-1,23.4-1.6,39.221-.29,7.577.579,13.371,4.557,18.251,12.256,15.02,40.4,18.451,42.819,17.081Z" transform="translate(-11.734 -42.421)" fill="#303030" fill-rule="evenodd"/>
    <path id="Path_681" data-name="Path 681" d="M186.55,265.381c3.744,1.114,6.318,1.716,6.574,1.56.969-.557-4.1-25.694-3.008-29.159a50.14,50.14,0,0,1,1.916-8.212l-4.747-21.995a1.961,1.961,0,0,0-.4-3.109c0-.379.323-3.621.78-7.978-2.574-5.727-4.457-9.839-4.457-9.839-3.644,18.763-3.777,18.63-3.777,18.63s2.429,7.554,1.6,11.064,3.777,29.928,5.281,40.324a37.7,37.7,0,0,1,.256,8.713Z" transform="translate(-8.275 -36.185)" fill="#232323" fill-rule="evenodd"/>
    <path id="Path_682" data-name="Path 682" d="M186.557,207.4c0-1.27,3.588-34.051,3.588-34.051A82.45,82.45,0,0,1,188.975,161l-6.685,29.46Z" transform="translate(-7.948 -39.115)" fill="#232323" fill-rule="evenodd"/>
    <path id="Path_683" data-name="Path 683" d="M151.968,131.732c0-.412-15.243,5.839-15.6,6.017s-.613.279-1.17,3.187-4.791,30.374-4.925,31.421-.256,2.4.39,6.685a73.537,73.537,0,0,1,1.114,9.226c-.1.591.312,17.638-1.393,29.727-1.894,13.449-5.337,27.855-9.1,46.641-2.117,10.529,24.312-2.095,29.438-11.3,4.591-8.3,2.373-13.738,2.83-18.942,1.348-15.722,3.209-35.956,3.031-37.75-.713-7.109-4.969-63-4.657-64.937Z" transform="translate(-14.93 -42.46)" fill="#303030" fill-rule="evenodd"/>
    <path id="Path_684" data-name="Path 684" d="M177.981,418.749s.4-5.359,3.822-5.359h6.685c2.228,0,4.457,3.343,5.07,5.682a3.789,3.789,0,0,1,2.674,2.63c.49,2.072,1.538,9.783,1.682,10.552s.747,3.621-2.674,3.621H170.9c-2.139,0-1.894-1.482-1.894-2.318a13.037,13.037,0,0,1,1.638-5.638C171.753,426.293,177.981,418.749,177.981,418.749Z" transform="translate(-9.467 -10.287)" fill="#111" fill-rule="evenodd"/>
    <path id="Path_685" data-name="Path 685" d="M177.1,418.749s.4-5.359,3.822-5.359h6.685c2.228,0,4.457,3.343,5.07,5.682l-2.73,5.382a5.225,5.225,0,0,1-3.588,1.226h-7.7s-2.017-.379-1.939-2.117.412-4.813.412-4.813Z" transform="translate(-8.584 -10.287)" fill="#111" fill-rule="evenodd"/>
    <path id="Path_686" data-name="Path 686" d="M197.759,429.66a7.18,7.18,0,0,0,.123.735c.156.769.747,3.621-2.674,3.621H170.9c-2.139,0-1.894-1.482-1.894-2.318a13.373,13.373,0,0,1,.29-2.039Z" transform="translate(-9.467 -8.428)" fill="#1c1c1c" fill-rule="evenodd"/>
    <path id="Path_687" data-name="Path 687" d="M87,154.65c5.27,1.348,7.978,1.682,11.744-1.76s1.883-.535,4.111,2.574c3.465,4.813-7.978,8.513-13.281,7.209Z" transform="translate(-18.832 -40.219)" fill="#d0d9e6" fill-rule="evenodd"/>
    <path id="Path_688" data-name="Path 688" d="M83.508,151.007c-5.4-10.028-8.39-14.864-5.939-15.12s5.66,5.783,5.66,5.783-3.777-9.961-1.348-10.24,5.571,9.449,5.571,9.449-2.73-8-2.552-10.93c.078-.914,1.426-1.526,1.939-.969,2.228,2.3,4.791,10.407,4.791,10.407s-2.618-7.343-2.44-10.151a1.108,1.108,0,0,1,1.114-1.114c2.039.4,4.992,11.242,4.992,11.242l5.593,8.68-5.783,6.351Z" transform="translate(-20.008 -42.871)" fill="#fcb187" fill-rule="evenodd"/>
    <path id="Path_689" data-name="Path 689" d="M82.246,149.075c5.047,8.969,5.66,9.281,8.334,10.028s9.46-.947,11.822-6.942,3.933-11.142,5.181-13.527-1.4-2.507-3.343-.468a76.115,76.115,0,0,0-5.2,7.086s-10.552-3.944-16.847,3.777Z" transform="translate(-19.381 -41.886)" fill="#fcb187" fill-rule="evenodd"/>
    <path id="Path_690" data-name="Path 690" d="M84.23,152.814c3.109,5.226,3.9,5.571,6.117,6.2,2.674.78,9.46-.947,11.822-6.942s3.933-11.142,5.181-13.527a2.874,2.874,0,0,0,.256-.591.379.379,0,0,1-.212.078c-.813.2-3.9,8.435-5.371,11.677s-6.685,6.4-9.716,6.4c-2.574,0-5.482-.078-8.078-3.343Z" transform="translate(-19.148 -41.747)" fill="#f2856e" fill-rule="evenodd"/>
    <path id="Path_691" data-name="Path 691" d="M121.4,81.5l-9.983,6.875,8.513,4.312-8.112,7.164,14.908,41.393,1.482-1.2-4.1-60.179Z" transform="translate(12.726 9.122)" fill="#232323" fill-rule="evenodd"/>
    <path id="Path_692" data-name="Path 692" d="M174.522,130.88l10.652,11.276L174.4,145.387l6.061,6.095L150.8,193.154Z" transform="translate(-11.545 -42.555)" fill="#232323" fill-rule="evenodd"/>
    <path id="Path_693" data-name="Path 693" d="M153.136,197.767c.758,0,1.348-.992,1.348-2.228s-.591-2.228-1.348-2.228-1.326.992-1.326,2.228S152.389,197.767,153.136,197.767Z" transform="translate(-11.429 -35.424)" fill="#d0d9e6" fill-rule="evenodd"/>
    <path id="Path_694" data-name="Path 694" d="M152.426,208.36c.747,0,1.3,1.047,1.248,2.228s-.68,2.173-1.426,2.117-1.292-1.014-1.248-2.228S151.691,208.338,152.426,208.36Z" transform="translate(-11.522 -33.705)" fill="#d0d9e6" fill-rule="evenodd"/>
    <path id="Path_695" data-name="Path 695" d="M163.011,169.872c-13.738,25.627-9.66,11.265-12.112,46.563l-2.139,27.332.557-27.354c1-34.129-1.526-22.552,11.343-47.711a1.337,1.337,0,0,1,1.783-.557,1.315,1.315,0,0,1,.568,1.783Z" transform="translate(-11.778 -38.315)" fill="#232323" fill-rule="evenodd"/>
    <path id="Path_696" data-name="Path 696" d="M141.091,97.741l-.457.067h0a6.117,6.117,0,1,0,5.114,1.2c.156,1.805-.1,4.056-2.418,4.279l.056-3.51a2.095,2.095,0,0,0-2.3-2.039Z" transform="translate(-13.257 -46.341)" fill="#f2856e" fill-rule="evenodd"/>
    <path id="Path_697" data-name="Path 697" d="M177.415,97.741l.435.067h0a6.106,6.106,0,1,1-5.07,1.259c-.156,1.805.156,4.045,2.451,4.256l-.078-3.521a2.084,2.084,0,0,1,2.228-2.061Z" transform="translate(-9.29 -46.341)" fill="#f2856e" fill-rule="evenodd"/>
    <path id="Path_698" data-name="Path 698" d="M160.816,131.474c11.41,0,20.925-14.095,20.925-25.2V91.485A20.981,20.981,0,0,0,160.816,70.56h0A20.981,20.981,0,0,0,139.88,91.485V105.97c0,12.19,8.29,25.538,20.936,25.538Z" transform="translate(-12.792 -49.445)" fill="#fcb187" fill-rule="evenodd"/>
    <path id="Path_699" data-name="Path 699" d="M164.962,92.747a.847.847,0,0,0-.435,1.114.858.858,0,0,0,1.114.435,5.761,5.761,0,0,1,5.17.334.891.891,0,0,0,1.226-.29.858.858,0,0,0-.279-1.192,7.5,7.5,0,0,0-6.83-.435Z" transform="translate(-9.985 -46.985)" fill="#111"/>
    <path id="Path_700" data-name="Path 700" d="M146.356,93.089a.883.883,0,1,0,.869,1.538,5.649,5.649,0,0,1,5.17-.078.925.925,0,0,0,1.2-.39.9.9,0,0,0-.379-1.192,7.688,7.688,0,0,0-6.864.123Z" transform="translate(-12.104 -46.971)" fill="#111"/>
    <path id="Path_701" data-name="Path 701" d="M158.264,103.972a17.148,17.148,0,0,0-1.014,3.287c.078.457,2.4.869,3.008.279.4-.379-.111-2.117-.535-3.287C159.111,102.668,158.776,102.546,158.264,103.972Z" transform="translate(-10.808 -45.742)" fill="#ffc3a1" fill-rule="evenodd"/>
    <path id="Path_702" data-name="Path 702" d="M155.051,115.735a3.421,3.421,0,0,0,6.83,0,.624.624,0,0,0-.635-.635h-5.571a.624.624,0,0,0-.635.635Z" transform="translate(-11.061 -44.357)" fill="#111" fill-rule="evenodd"/>
    <path id="Path_703" data-name="Path 703" d="M161.361,113H156.47v.591a.546.546,0,0,0,.557.535H160.8a.546.546,0,0,0,.557-.535Z" transform="translate(-10.897 -44.597)" fill="#fff" fill-rule="evenodd"/>
    <path id="Path_704" data-name="Path 704" d="M155.9,117.882a3.443,3.443,0,0,0,4.947,0,3.343,3.343,0,0,0-4.947,0Z" transform="translate(-10.962 -44.165)" fill="#fa6676" fill-rule="evenodd"/>
    <path id="Path_705" data-name="Path 705" d="M140.119,104.629l2.017-8.212s6.529-4.769,4.212-11.421S143.6,79,143.6,79s-8.691,3.933-4.813,21.571Z" transform="translate(-13.031 -48.482)" fill="#232323" fill-rule="evenodd"/>
    <path id="Path_706" data-name="Path 706" d="M178.139,104.631l-2.017-8.212S169.593,91.65,171.911,85s2.786-6.017,2.786-6.017,8.669,3.933,4.813,21.571Z" transform="translate(-9.19 -48.485)" fill="#232323" fill-rule="evenodd"/>
    <path id="Path_707" data-name="Path 707" d="M168.2,100.61a1.95,1.95,0,0,0-1.3.535,1.838,1.838,0,0,0-.535,1.27.724.724,0,0,1-.713.747.747.747,0,0,1-.735-.747,3.242,3.242,0,0,1,.969-2.3,3.262,3.262,0,0,1,5.582,2.3.747.747,0,0,1-.735.747.735.735,0,0,1-.713-.747,1.794,1.794,0,0,0-.546-1.27A1.772,1.772,0,0,0,168.2,100.61Z" transform="translate(-9.933 -46.179)" fill="#111" fill-rule="evenodd"/>
    <path id="Path_708" data-name="Path 708" d="M149.8,100.61a1.772,1.772,0,0,0-1.27.535,1.7,1.7,0,0,0-.546,1.27.735.735,0,0,1-.713.747.747.747,0,0,1-.735-.747,3.153,3.153,0,0,1,.969-2.3,3.242,3.242,0,0,1,2.3-.969,3.343,3.343,0,0,1,2.318.969,3.22,3.22,0,0,1,.947,2.3.724.724,0,0,1-.713.747.747.747,0,0,1-.747-.747,1.7,1.7,0,0,0-.535-1.27A1.783,1.783,0,0,0,149.8,100.61Z" transform="translate(-12.031 -46.179)" fill="#111" fill-rule="evenodd"/>
    <path id="Path_709" data-name="Path 709" d="M160.587,124.007c3.086,0,4.568-3.822,4.568-5.148s-.635-1.838-1.448-1.838h-6.251c-.791,0-1.482.513-1.448,1.838S157.478,124.007,160.587,124.007Zm0-11.878c10.529,0,8.914,10.507,12.925,7.064a19.042,19.042,0,0,0,6.351-13.2V94.67l2.017,1.983.6,5.259a28.478,28.478,0,0,0-.635,6.061c0,17.972-14.63,25.382-21.259,25.493-6.9-.156-21.282-7.521-21.282-25.493a28.48,28.48,0,0,0-.635-6.061l.613-5.259,1.983-1.983v11.343a19.165,19.165,0,0,0,6.34,13.2c3.978,3.443,2.429-7.064,12.947-7.064Z" transform="translate(-12.93 -46.691)" fill="#232323" fill-rule="evenodd"/>
    <path id="Path_710" data-name="Path 710" d="M164.729,96.941a16.256,16.256,0,0,1-4.022.869,16.021,16.021,0,0,1-4.033-.869,33.861,33.861,0,0,0-14.864-.3c-1.17.256-1.348,2.574-.2,2.808a1.114,1.114,0,0,1,.847.735c.3.914,1.114,4.769,2.474,6.273,2.618,2.875,10.7,2.875,12.713-1.738.947-2.162,1.482-4.056,2.061-4.635a1.359,1.359,0,0,1,1-.334,1.237,1.237,0,0,1,.958.334c.613.579,1.114,2.474,2.095,4.635,2.017,4.613,10.028,4.613,12.724,1.738,1.393-1.5,2.139-5.359,2.462-6.273a1.114,1.114,0,0,1,.847-.735c1.114-.234.969-2.552-.2-2.808a33.873,33.873,0,0,0-14.864.3ZM157.208,98.9c.747,1.181-.357,4.624-1.114,5.816-1.894,3.031-6.4,3.131-9.359,1.6-1.226-.613-1.805-2.574-2.084-3.744s-.825-3.744.613-4.568c2.162-1.292,10.674-1.114,11.922.891Zm8.056,5.816c-.713-1.192-1.805-4.635-1.114-5.816,1.226-2.006,9.761-2.228,11.922-.891,1.4.825.9,3.343.613,4.568s-.891,3.131-2.084,3.744c-2.986,1.526-7.5,1.426-9.382-1.6Z" transform="translate(-12.683 -46.544)" fill="#111" fill-rule="evenodd"/>
    <path id="Path_711" data-name="Path 711" d="M178.686,86.994c10.095,10.73,12.256-9.917-.691-18.329-10.585-6.886-28.825-1.983-28.825-1.983,8.412-9.181-18.206-3.721-12.847,16.769,2.117,8.134,10.139,14.485,22.608,9.638s16.892.2,18.039.223S179.087,90.559,178.686,86.994Z" transform="translate(-13.28 -50.379)" fill="#303030" fill-rule="evenodd"/>
    <path id="Path_712" data-name="Path 712" d="M98.225,144.645c.178-.3-.635-1.5-1.114-1.7-3.877,1.014-8.691,3.643-9.761,7.8v.178c.691-2.373,4.29-4.992,7.265-6.039a8.535,8.535,0,0,1,3.677-.256Z" transform="translate(-18.792 -41.177)" fill="#f2856e" fill-rule="evenodd"/>
    <path id="Path_713" data-name="Path 713" d="M94.324,139.621c.435-.735-2.552-1.326-5.449-.435a9.939,9.939,0,0,0-6.685,7.164c0,.1,0,.156,0,.178.769-2.607,4.669-5.426,7.933-6.607a10.953,10.953,0,0,1,4.279-.3Z" transform="translate(-19.381 -41.657)" fill="#f2856e" fill-rule="evenodd"/>
    <path id="Path_714" data-name="Path 714" d="M263.189,153.088a18.719,18.719,0,1,0-18.719-18.719,18.719,18.719,0,0,0,18.719,18.719Z" transform="translate(-0.846 -44.294)" fill="#06152d" fill-rule="evenodd"/>
    <path id="Path_715" data-name="Path 715" d="M246.209,160.838A18.719,18.719,0,1,0,227.49,142.13,18.719,18.719,0,0,0,246.209,160.838Z" transform="translate(-2.785 -43.409)" fill="#06152d" fill-rule="evenodd"/>
    <path id="Path_716" data-name="Path 716" d="M276.53,158.056l5.237-8.256s5.694,1.838,8.145,5.359,14.061,27.276,17.415,35.22,3.666,11.009.613,19.867-10.852,21.66-12.256,23.878a21.17,21.17,0,0,1-3.911,4.457c-.825.691-6.095-.992-6.095-.992l.758-7.142s1.259,1.259,2.563-.457,9.326-26.284,9.627-27.432-.312-2.373-1.114-3.9-17.649-24.981-17.649-24.981Z" transform="translate(2.816 -40.394)" fill="#e6ad83" fill-rule="evenodd"/>
    <path id="Path_717" data-name="Path 717" d="M302.6,179.792l.1.223L293.1,190.979l-4.022-5.694,8.914-6.685Z" transform="translate(4.249 -37.104)" fill="#d77f68" fill-rule="evenodd"/>
    <path id="Path_718" data-name="Path 718" d="M288.507,152.85a29.481,29.481,0,0,1,3.643,5.2c1.749,3.153,11.632,23.555,11.632,23.555a1.337,1.337,0,0,1-.312,1.192c-.49.49-11.064,8.914-11.064,8.914s-.992.8-1.727.067-6.206-10.028-6.206-10.028S280.707,157.184,288.507,152.85Z" transform="translate(3.619 -40.046)" fill="#e29a30" fill-rule="evenodd"/>
    <path id="Path_719" data-name="Path 719" d="M239.7,158.056l-5.226-8.256s-5.694,1.838-8.145,5.359-14.061,27.276-17.426,35.22-3.666,11.009-.6,19.867,10.841,21.66,12.256,23.878a21.17,21.17,0,0,0,3.911,4.457c.825.691,6.095-.992,6.095-.992l-.758-7.142s-1.27,1.259-2.563-.457-9.326-26.284-9.627-27.432.3-2.373,1.114-3.9,17.649-24.981,17.649-24.981Z" transform="translate(-5.22 -40.394)" fill="#e6ad83" fill-rule="evenodd"/>
    <path id="Path_720" data-name="Path 720" d="M220.83,191.427c1.114-1.638,2.552-3.632,4.045-5.727l-9.025-8.19-4.29,2.429Z" transform="translate(-4.605 -37.229)" fill="#d77f68" fill-rule="evenodd"/>
    <path id="Path_721" data-name="Path 721" d="M226.568,152.85a29.819,29.819,0,0,0-3.632,5.2c-1.749,3.153-11.632,23.555-11.632,23.555a1.337,1.337,0,0,0,.312,1.192c.49.49,11.064,8.914,11.064,8.914s.992.8,1.727.067,6.206-10.028,6.206-10.028S234.368,157.184,226.568,152.85Z" transform="translate(-4.638 -40.046)" fill="#e29a30" fill-rule="evenodd"/>
    <path id="Path_722" data-name="Path 722" d="M255.35,82.591a29.683,29.683,0,0,0-19.867,14.485c-5.4,9.226-2.574,20.635.334,29.594h45.248c1.571-10.619,5.482-25.014,3.209-30.429-2.652-6.306-8.39-4.836-8.39-4.836S274.292,79.539,255.35,82.591Z" transform="translate(-2.221 -48.128)" fill="#06152d" fill-rule="evenodd"/>
    <path id="Path_723" data-name="Path 723" d="M288.287,242.1H230.693c7.354-15.878,5.883-25.393,3.343-43.622-3.343-6.518-5.939-18.385-4.156-26.875s1.983-20.78,1.983-20.78,16.713-3.677,18.229-4.457,1.616-3.855,1.616-3.855l7.8-1.682,7.8,1.682s.134,3.12,1.616,3.855,18.229,4.457,18.229,4.457.2,12.256,1.983,20.78-.791,20.357-4.156,26.875C282.448,216.708,280.944,226.224,288.287,242.1Z" transform="translate(-2.579 -41.418)" fill="#d77f68" fill-rule="evenodd"/>
    <path id="Path_724" data-name="Path 724" d="M246.816,307.627c3.343-21.1,6.518-29.193,7.41-36.078L233.245,242.2c.936,7.632-8.8,61.616-9.014,62.786-7.8,43.455-2.986,97.728-4.68,117.94-.156,1.872-3.109,17.415-3.109,17.415l-1.582,6.318.234,2.6,7.086,1.682,6.685-4.813s1.515-16.591,1.114-19.722a36.592,36.592,0,0,0-.847-4.936l-.568-.78C234.348,383.294,243.44,328.741,246.816,307.627Z" transform="translate(-4.228 -29.84)" fill="#e6ad83" fill-rule="evenodd"/>
    <path id="Path_725" data-name="Path 725" d="M216.94,422.01a36.839,36.839,0,0,1-2.139,4.936,56.955,56.955,0,0,0-3.889,4.992c-.423.992-1.248,4.045,2.072,4.045h11.878c3.164,0,5.839-.992,5.872-3.944s.256-13.371.68-15.6,1.538-4.825,1-7.053a32.433,32.433,0,0,0-2.641-6.474,2.429,2.429,0,0,0-.68-.513l.345,1.983a8.341,8.341,0,0,1,.234,1.4c.279,3.265-.925,17.95-.925,19.176s-1.281,2.017-3.632,2.674-7.209,1.226-9.025-.513a.958.958,0,0,1-.134-.9C216.115,425.576,216.94,422.01,216.94,422.01Z" transform="translate(-4.726 -11.542)" fill="#283766" fill-rule="evenodd"/>
    <path id="Path_726" data-name="Path 726" d="M270.21,307.627c-3.343-21.1-6.518-29.193-7.41-36.078L283.77,242.2c-.925,7.632,8.813,61.616,9.025,62.786,7.8,43.455,2.986,97.728,4.68,117.94.156,1.872,3.109,17.415,3.109,17.415l1.582,6.318-.234,2.6-7.086,1.682-6.685-4.813s-1.515-16.591-1.114-19.722a36.584,36.584,0,0,1,.847-4.936l.568-.78C282.678,383.294,273.586,328.741,270.21,307.627Z" transform="translate(1.248 -29.84)" fill="#e6ad83" fill-rule="evenodd"/>
    <path id="Path_727" data-name="Path 727" d="M298.311,422.01a36.832,36.832,0,0,0,2.139,4.936,59.176,59.176,0,0,1,3.889,4.992c.423.992,1.248,4.045-2.072,4.045H290.389c-3.164,0-5.839-.992-5.872-3.944s-.256-13.371-.68-15.6-1.538-4.825-1-7.053a32.432,32.432,0,0,1,2.641-6.474,2.43,2.43,0,0,1,.68-.513l-.345,1.983a8.341,8.341,0,0,0-.234,1.4c-.29,3.265.925,17.95.925,19.176s1.281,2.017,3.632,2.674,7.209,1.226,9.025-.513a.958.958,0,0,0,.134-.9C299.136,425.576,298.311,422.01,298.311,422.01Z" transform="translate(3.52 -11.542)" fill="#283766" fill-rule="evenodd"/>
    <path id="Path_728" data-name="Path 728" d="M245.969,302.2c.758-4.78,1.515-8.914,2.228-12.468-9.638,1.114-18.206,2.162-23.566,2.808-.724,4.1-1.2,6.774-1.248,7.02q-.568,3.231-1.114,6.507a138.607,138.607,0,0,0,21.984,6.886C244.9,308.805,245.49,305.173,245.969,302.2Z" transform="translate(-3.382 -24.411)" fill="#d77f68" fill-rule="evenodd"/>
    <path id="Path_729" data-name="Path 729" d="M269.738,302.745c-.969-6.061-1.916-11.053-2.808-15.254,8.424-.969,16.424-1.872,22.741-2.552,1.448,8.49,2.585,14.775,2.652,15.164.813,4.557,1.493,9.237,2.05,13.983a115.81,115.81,0,0,1-22.351,2.774C271.119,311.291,270.351,306.489,269.738,302.745Z" transform="translate(1.72 -24.958)" fill="#d77f68" fill-rule="evenodd"/>
    <path id="Path_730" data-name="Path 730" d="M230.8,234.316l-11.209,65.817-1.4,8.557s.29,2.228,3.933,3.075a249.346,249.346,0,0,0,38.753,3.655,249.315,249.315,0,0,0,38.741-3.655c3.643-.836,3.933-3.075,3.933-3.075l-1.4-8.557L290.937,234.3,286.124,219.5c.334-2.384-.958-6.351-1.56-6.329s-23.688-2.128-23.688-2.128-23.109,2.184-23.7,2.184-1.894,3.944-1.56,6.329Z" transform="translate(-3.848 -33.399)" fill="#122344" fill-rule="evenodd"/>
    <path id="Path_731" data-name="Path 731" d="M229.583,234.316l-.713,4.156,11.566-5.571,2.228-7.465,3.632-2.485-2.8-4.234s13.883-2.953,32.9,0l-2.942,4.234,2.685,3.643,4.345,6.886,11.32,65.449s2.095,7.12-3.877,14.485c5.125-.646,9.025-1.27,10.44-1.6,3.643-.836,3.933-3.075,3.933-3.075l-1.382-8.6L289.718,234.3,284.9,219.5c.334-2.384-.958-6.351-1.56-6.329s-23.688-2.128-23.688-2.128-23.109,2.184-23.7,2.184-1.894,3.944-1.56,6.329Z" transform="translate(-2.628 -33.399)" fill="#06152d" fill-rule="evenodd"/>
    <path id="Path_732" data-name="Path 732" d="M257.2,124.68h0a7.8,7.8,0,0,1,7.8,7.8v14.986a7.8,7.8,0,0,1-7.8,7.8h0a7.8,7.8,0,0,1-7.8-7.8V132.5a7.8,7.8,0,0,1,7.8-7.822Z" transform="translate(-0.283 -43.263)" fill="#d77f68" fill-rule="evenodd"/>
    <path id="Path_733" data-name="Path 733" d="M288.6,224.293s-4.958-5.694-6.474-6.685-6.552-1.571-8.769-1.727-4.724,5.181-5.337,6.006,2.362,1.014,4.078-1.616c0,0-2.318,10.463-2.4,11.031s.646.969,1.326.524l.8-.535c-.3.758-.546,1.415-.613,1.66-.189.713,1.415,1.348,3.008-.6l-.345,1.114a.334.334,0,0,0,.323.468,4.457,4.457,0,0,0,3.109-2.663,22.432,22.432,0,0,0,1.415-4.7,7.542,7.542,0,0,1,2.061-.858,6.852,6.852,0,0,0,1.56,4.68,7.688,7.688,0,0,0,10.362.68Z" transform="translate(1.835 -32.847)" fill="#e6ad83" fill-rule="evenodd"/>
    <path id="Path_734" data-name="Path 734" d="M268.31,222.105a4.19,4.19,0,0,0,3.744-2.128,3.131,3.131,0,0,1,2.095-1.337,3.51,3.51,0,0,0-2.173.178,34.037,34.037,0,0,0-3.666,3.343Zm2.162,9.616,3.61-10.373-2.3,9.649-.8.535A1.2,1.2,0,0,1,270.472,231.721Zm1.549,1.627a2.953,2.953,0,0,0,2.162-1.293c.457-1.036,2.072-7.632,2.072-7.632l-4.234,8.914Zm8.724-7.967a6.852,6.852,0,0,0,1.56,4.68,7.5,7.5,0,0,0,8.056,1.916Z" transform="translate(1.877 -32.542)" fill="#d77f68" fill-rule="evenodd"/>
    <path id="Path_735" data-name="Path 735" d="M289.525,228.716l-.267-9.616a19.558,19.558,0,0,1-1.315,2.986c-1.3,1.716-2.563.457-2.563.457A38.308,38.308,0,0,1,289.525,228.716Z" transform="translate(3.827 -32.478)" fill="#d77f68" fill-rule="evenodd"/>
    <path id="Path_736" data-name="Path 736" d="M269.179,145.725a11.075,11.075,0,0,1-18.173,0c-.613-.691-1.838-.267-4.368.646s-7.8,1.694-13.371,2.841A14.63,14.63,0,0,0,225,153.67c2.585,2.618,1.961,29.07,5.95,39.934,1.682,4.6,3.454,9.059,3.566,10.028.189,1.816-.479,12.368.089,13.95s.713,2.529,2.228,3.343,5.983,0,10.373-.613a126.1,126.1,0,0,1,12.958-.579s8.546,0,12.947.579,8.914,1.37,10.373.613,1.616-1.716,2.228-3.343-.1-12.134.1-13.95c.089-.914,1.727-5.047,3.343-9.449,4.056-11.009,3.733-38.051,6.139-40.5a14.563,14.563,0,0,0-8.256-4.457c-5.638-1.114-10.864-1.939-13.371-2.841S269.792,145.034,269.179,145.725Z" transform="translate(-3.07 -40.898)" fill="#e29a30" fill-rule="evenodd"/>
    <path id="Path_737" data-name="Path 737" d="M228.379,182.693a50.855,50.855,0,0,0,2.173,9.883c.368,1.014.735,2.017,1.114,2.986a3.889,3.889,0,0,1,3.164-1.5h39.934a6.5,6.5,0,0,1,3.777,1.772c1.025,1.014,4.379,4.557,6.763,7.075a2.408,2.408,0,0,1,0-.312c.089-.914,1.727-5.047,3.343-9.449a53.482,53.482,0,0,0,2.306-10.5l-.2-1.036-2.841-26.942-1.549,21.3s-.98,4.624-5.047,4.624H233.538s-2.518.513-3.187-2.618S228.29,166.3,228.29,166.3Z" transform="translate(-2.694 -39.838)" fill="#d97a2d" fill-rule="evenodd"/>
    <path id="Path_738" data-name="Path 738" d="M244.42,146.371s.691-.056.88,2.474c1.025,13.56,10.853,13.371,12.58,5.159,1.716,8.223,11.543,8.4,12.568-5.159.189-2.529.88-2.474.88-2.474-2.529-.914-3.755-1.337-4.368-.646a11.075,11.075,0,0,1-18.173,0C248.175,145.034,246.96,145.458,244.42,146.371Z" transform="translate(-0.852 -40.898)" fill="#fff" fill-rule="evenodd"/>
    <path id="Path_739" data-name="Path 739" d="M274.238,116.31a2.653,2.653,0,0,1,.412.067h0a5.571,5.571,0,1,1-4.669,1.114c-.156,1.649.089,3.7,2.228,3.911v-3.22a1.905,1.905,0,0,1,2.028-1.872Z" transform="translate(1.832 -44.219)" fill="#d7766d" fill-rule="evenodd"/>
    <path id="Path_740" data-name="Path 740" d="M239.774,116.071a2.452,2.452,0,0,0-.412.067h0a5.571,5.571,0,1,0,4.669,1.114c.123,1.649-.156,3.688-2.228,3.877l.089-3.22a1.916,1.916,0,0,0-2.117-1.838Z" transform="translate(-1.932 -44.248)" fill="#d7766d" fill-rule="evenodd"/>
    <path id="Path_741" data-name="Path 741" d="M258.362,147.139c-10.44,0-19.142-12.88-19.142-23.042v-13.5A19.2,19.2,0,0,1,258.362,91.45h0A19.2,19.2,0,0,1,277.5,110.592v13.215C277.5,134.949,269.906,147.139,258.362,147.139Z" transform="translate(-1.445 -47.059)" fill="#e6ad83" fill-rule="evenodd"/>
    <path id="Path_742" data-name="Path 742" d="M266.458,124.55a2.652,2.652,0,1,0,1.9.741,2.663,2.663,0,0,0-1.9-.741Z" transform="translate(1.367 -43.278)" fill="#d7766d" fill-rule="evenodd"/>
    <path id="Path_743" data-name="Path 743" d="M246.746,124.93a2.652,2.652,0,1,0,1.9.741,2.652,2.652,0,0,0-1.9-.741Z" transform="translate(-0.882 -43.235)" fill="#d7766d" fill-rule="evenodd"/>
    <path id="Path_744" data-name="Path 744" d="M251.975,112.147a.791.791,0,0,1,.4,1.114.8.8,0,0,1-1.114.4,5.27,5.27,0,0,0-4.735.3.8.8,0,0,1-.858-1.359A6.908,6.908,0,0,1,251.975,112.147Z" transform="translate(-0.752 -44.758)" fill="#06152d" fill-rule="evenodd"/>
    <path id="Path_745" data-name="Path 745" d="M268.968,112.492a.8.8,0,0,1,.312,1.114.813.813,0,0,1-1.114.312,5.192,5.192,0,0,0-4.735-.089.8.8,0,1,1-.747-1.426A6.908,6.908,0,0,1,268.968,112.492Z" transform="translate(1.185 -44.747)" fill="#06152d" fill-rule="evenodd"/>
    <path id="Path_746" data-name="Path 746" d="M258.611,122.721a18.115,18.115,0,0,1,.925,3.142c-.067.4-2.228.5-2.741-.111-.379-.4.078-1.928.479-2.942C257.831,121.428,258.154,121.362,258.611,122.721Z" transform="translate(0.546 -43.599)" fill="#ebbf9e" fill-rule="evenodd"/>
    <path id="Path_747" data-name="Path 747" d="M261.191,129.462a4.345,4.345,0,1,1-8.691,0,.8.8,0,0,1,.791-.8h7.1A.8.8,0,0,1,261.191,129.462Z" transform="translate(0.071 -42.808)" fill="#fff" fill-rule="evenodd"/>
    <path id="Path_748" data-name="Path 748" d="M274.262,122.428l-2.006-8.1s-6.44-4.724-4.156-11.3,2.741-5.928,2.741-5.928,8.579,3.866,4.769,21.3Z" transform="translate(1.797 -46.415)" fill="#06152d" fill-rule="evenodd"/>
    <path id="Path_749" data-name="Path 749" d="M239.459,122.428l2.006-8.1s6.429-4.724,4.145-11.3-2.73-5.928-2.73-5.928-8.591,3.866-4.769,21.3Z" transform="translate(-1.684 -46.415)" fill="#06152d" fill-rule="evenodd"/>
    <path id="Path_750" data-name="Path 750" d="M242.173,107.467l-2.953,8.312a44.926,44.926,0,0,0,16.713-9.471c7.465-6.93,9.359-5.036,10.095-2.83s4.457,11.666,10.2,12.256,4.836-14.307-4-20.613-24.914-5.148-28.491-.836S242.173,107.467,242.173,107.467Z" transform="translate(-1.445 -47.142)" fill="#06152d" fill-rule="evenodd"/>
    <path id="Path_751" data-name="Path 751" d="M226.771,224.293s4.958-5.694,6.485-6.685,6.552-1.571,8.758-1.727,4.724,5.181,5.337,6.006-2.362,1.014-4.078-1.616c0,0,2.329,10.463,2.407,11.031s-.657.969-1.337.524l-.791-.535c.29.758.546,1.415.6,1.66.189.713-1.4,1.348-3.008-.6l.345,1.114a.334.334,0,0,1-.323.468,4.457,4.457,0,0,1-3.109-2.663,22.428,22.428,0,0,1-1.415-4.7,7.354,7.354,0,0,0-2.05-.858,6.853,6.853,0,0,1-1.56,4.68,7.71,7.71,0,0,1-10.373.68Z" transform="translate(-3.337 -32.847)" fill="#e6ad83" fill-rule="evenodd"/>
    <path id="Path_752" data-name="Path 752" d="M246.79,222.1a4.2,4.2,0,0,1-3.755-2.128,3.1,3.1,0,0,0-2.095-1.337,3.521,3.521,0,0,1,2.173.178,35.045,35.045,0,0,1,3.677,3.343Zm-2.173,9.616-3.6-10.373,2.3,9.649.791.535A1.259,1.259,0,0,0,244.618,231.721Zm-1.538,1.627a2.986,2.986,0,0,1-2.173-1.292c-.457-1.036-2.061-7.632-2.061-7.632l4.234,8.914Zm-8.724-7.967a6.853,6.853,0,0,1-1.56,4.68,7.5,7.5,0,0,1-8.056,1.916Z" transform="translate(-3.099 -32.542)" fill="#d77f68" fill-rule="evenodd"/>
    <path id="Path_753" data-name="Path 753" d="M223.74,228.716l.267-9.616a18.82,18.82,0,0,0,1.3,2.986c1.3,1.716,2.563.457,2.563.457A38.238,38.238,0,0,0,223.74,228.716Z" transform="translate(-3.214 -32.478)" fill="#d77f68" fill-rule="evenodd"/>
    <path id="Path_754" data-name="Path 754" d="M247.945,122.6a2.214,2.214,0,0,1-2.173-2.708l-.245-.089a2.351,2.351,0,0,1-.769-.49.272.272,0,1,1,.39-.379,1.761,1.761,0,0,0,.747.423h0a1.727,1.727,0,0,1-.68-.7.272.272,0,1,1,.479-.256,1.259,1.259,0,0,0,.568.546h0a1.214,1.214,0,0,1-.4-.6.279.279,0,0,1,.535-.145.724.724,0,0,0,.29.39,2.128,2.128,0,0,1,1.2-.357,2.228,2.228,0,0,1,0,4.368Z" transform="translate(-0.822 -44.024)" fill="#06152d" fill-rule="evenodd"/>
    <path id="Path_755" data-name="Path 755" d="M265.363,122.6a2.228,2.228,0,0,0,2.228-2.228,1.719,1.719,0,0,0,0-.479l.256-.089a2.351,2.351,0,0,0,.769-.49.272.272,0,1,0-.39-.379,1.727,1.727,0,0,1-.758.423h0a1.794,1.794,0,0,0,.68-.7.279.279,0,0,0-.49-.256,1.215,1.215,0,0,1-.568.546h0a1.2,1.2,0,0,0,.39-.6.267.267,0,0,0-.189-.334.279.279,0,0,0-.334.189.78.78,0,0,1-.29.39,2.128,2.128,0,0,0-1.2-.357,2.228,2.228,0,0,0,0,4.368Z" transform="translate(1.348 -44.026)" fill="#06152d" fill-rule="evenodd"/>
  </g>
</svg>
